<mxfile host="Electron" agent="Mozilla/5.0 (Macintosh; Intel Mac OS X 10_15_7) AppleWebKit/537.36 (KHTML, like Gecko) draw.io/28.0.6 Chrome/138.0.7204.100 Electron/37.2.3 Safari/537.36" version="28.0.6">
  <diagram name="Page-1" id="IqX2V7gKTiYqX2Ck_K_r">
    <mxGraphModel dx="976" dy="673" grid="1" gridSize="10" guides="1" tooltips="1" connect="1" arrows="1" fold="1" page="1" pageScale="1" pageWidth="3000" pageHeight="3000" math="1" shadow="0">
      <root>
        <mxCell id="0" />
        <mxCell id="1" parent="0" />
        <mxCell id="UcRCHqnzbA3p5UHYwvYD-1" value="" style="rounded=1;whiteSpace=wrap;html=1;fillColor=#E6E6E6;strokeColor=none;opacity=70;" parent="1" vertex="1">
          <mxGeometry x="1326" y="107" width="1044" height="112" as="geometry" />
        </mxCell>
        <mxCell id="UcRCHqnzbA3p5UHYwvYD-27" value="&lt;span&gt;Prompts&lt;/span&gt;" style="text;html=1;align=center;verticalAlign=middle;whiteSpace=wrap;rounded=0;fontStyle=1" parent="1" vertex="1">
          <mxGeometry x="1808.52" y="94" width="152.96" height="14.5" as="geometry" />
        </mxCell>
        <mxCell id="UcRCHqnzbA3p5UHYwvYD-31" value="&lt;b&gt;Final Results&lt;/b&gt;" style="text;html=1;align=center;verticalAlign=middle;whiteSpace=wrap;rounded=0;" parent="1" vertex="1">
          <mxGeometry x="2227" y="92.5" width="130" height="14.5" as="geometry" />
        </mxCell>
        <mxCell id="UcRCHqnzbA3p5UHYwvYD-34" value="&lt;u&gt;Single-Agent&amp;nbsp;&lt;/u&gt;&lt;u style=&quot;background-color: initial;&quot;&gt;System&lt;/u&gt;" style="text;html=1;align=center;verticalAlign=middle;whiteSpace=wrap;rounded=0;fontStyle=1" parent="1" vertex="1">
          <mxGeometry x="1829.9999999999998" y="110" width="124.03" height="14.5" as="geometry" />
        </mxCell>
        <mxCell id="UcRCHqnzbA3p5UHYwvYD-81" style="edgeStyle=orthogonalEdgeStyle;rounded=0;orthogonalLoop=1;jettySize=auto;html=1;exitX=0;exitY=0;exitDx=170;exitDy=30;exitPerimeter=0;entryX=0;entryY=0.5;entryDx=0;entryDy=0;endArrow=classicThin;endFill=1;" parent="1" source="UcRCHqnzbA3p5UHYwvYD-75" target="UcRCHqnzbA3p5UHYwvYD-79" edge="1">
          <mxGeometry relative="1" as="geometry" />
        </mxCell>
        <mxCell id="UcRCHqnzbA3p5UHYwvYD-78" style="edgeStyle=orthogonalEdgeStyle;rounded=0;orthogonalLoop=1;jettySize=auto;html=1;entryX=0;entryY=0.5;entryDx=0;entryDy=0;entryPerimeter=0;endArrow=classicThin;endFill=1;fontStyle=1" parent="1" target="UcRCHqnzbA3p5UHYwvYD-75" edge="1">
          <mxGeometry relative="1" as="geometry">
            <mxPoint x="1771.48" y="167.10000000000002" as="sourcePoint" />
          </mxGeometry>
        </mxCell>
        <mxCell id="iooDljMD1_UqT9_UK1IL-6" style="edgeStyle=orthogonalEdgeStyle;rounded=1;orthogonalLoop=1;jettySize=auto;html=1;exitX=0.5;exitY=0;exitDx=0;exitDy=0;entryX=0;entryY=0.5;entryDx=0;entryDy=0;curved=0;endArrow=classicThin;endFill=1;" parent="1" source="UcRCHqnzbA3p5UHYwvYD-79" target="6WsjHR_gTMNWGDnBjEA1-1" edge="1">
          <mxGeometry relative="1" as="geometry" />
        </mxCell>
        <mxCell id="UcRCHqnzbA3p5UHYwvYD-79" value="&lt;p style=&quot;text-align: left; border-color: var(--border-color); margin: 0cm;&quot; class=&quot;MsoNormal&quot;&gt;&lt;b&gt;(&quot;Rise&quot;,&amp;nbsp;&lt;span style=&quot;background-color: rgb(0, 153, 0);&quot;&gt;0.80&lt;/span&gt;)&lt;/b&gt;&lt;br&gt;&lt;/p&gt;" style="rounded=0;whiteSpace=wrap;html=1;" parent="1" vertex="1">
          <mxGeometry x="2111" y="156.76" width="78.94" height="20" as="geometry" />
        </mxCell>
        <mxCell id="UcRCHqnzbA3p5UHYwvYD-82" value="&lt;span&gt;Predict&lt;/span&gt;" style="rounded=0;whiteSpace=wrap;html=1;strokeColor=none;fillColor=#ececec;fontStyle=1" parent="1" vertex="1">
          <mxGeometry x="2042" y="160.62" width="40" height="13.75" as="geometry" />
        </mxCell>
        <mxCell id="UcRCHqnzbA3p5UHYwvYD-48" value="&lt;span&gt;Fine-tune&lt;/span&gt;" style="rounded=0;whiteSpace=wrap;html=1;strokeColor=none;fillColor=#ececec;fontStyle=1" parent="1" vertex="1">
          <mxGeometry x="1685.14" y="160" width="36.57" height="13.75" as="geometry" />
        </mxCell>
        <mxCell id="VNlArZR2CeFgTRKCGVnY-39" value="&lt;div&gt;&lt;br&gt;&lt;/div&gt;&lt;div&gt;&lt;div style=&quot;&quot;&gt;&lt;span style=&quot;font-weight: normal;&quot;&gt;&lt;font style=&quot;font-size: 12px;&quot;&gt;&amp;nbsp; &amp;nbsp; &amp;nbsp; &amp;nbsp; &amp;nbsp; &amp;nbsp;&amp;nbsp;&lt;/font&gt;&lt;/span&gt;&lt;/div&gt;&lt;div style=&quot;&quot;&gt;&lt;br&gt;&lt;/div&gt;&lt;/div&gt;" style="shape=note;whiteSpace=wrap;html=1;backgroundOutline=1;darkOpacity=0.05;size=0;align=left;fillColor=#FAFAFA;fontStyle=1" parent="1" vertex="1">
          <mxGeometry x="1337" y="110" width="330" height="40" as="geometry" />
        </mxCell>
        <mxCell id="VNlArZR2CeFgTRKCGVnY-38" value="&lt;div&gt;&lt;br&gt;&lt;/div&gt;&lt;div&gt;&lt;div style=&quot;&quot;&gt;&lt;span style=&quot;font-weight: normal;&quot;&gt;&lt;font style=&quot;font-size: 12px;&quot;&gt;&amp;nbsp; &amp;nbsp; &amp;nbsp; &amp;nbsp; &amp;nbsp; &amp;nbsp;&amp;nbsp;&lt;/font&gt;&lt;/span&gt;&lt;/div&gt;&lt;div style=&quot;&quot;&gt;&lt;br&gt;&lt;/div&gt;&lt;/div&gt;" style="shape=note;whiteSpace=wrap;html=1;backgroundOutline=1;darkOpacity=0.05;size=0;align=left;fillColor=#FAFAFA;fontStyle=1" parent="1" vertex="1">
          <mxGeometry x="1334" y="113" width="330" height="40" as="geometry" />
        </mxCell>
        <mxCell id="VNlArZR2CeFgTRKCGVnY-47" style="edgeStyle=orthogonalEdgeStyle;rounded=1;orthogonalLoop=1;jettySize=auto;html=1;exitX=0;exitY=0;exitDx=330;exitDy=20;exitPerimeter=0;entryX=0;entryY=0.5;entryDx=0;entryDy=0;endArrow=classicThin;endFill=1;curved=0;" parent="1" source="VNlArZR2CeFgTRKCGVnY-32" edge="1">
          <mxGeometry relative="1" as="geometry">
            <Array as="points">
              <mxPoint x="1680" y="136" />
              <mxPoint x="1680" y="167" />
            </Array>
            <mxPoint x="1728.35" y="167" as="targetPoint" />
          </mxGeometry>
        </mxCell>
        <mxCell id="VNlArZR2CeFgTRKCGVnY-32" value="&lt;div style=&quot;font-size: 13px;&quot;&gt;&lt;span style=&quot;background-color: initial; font-family: &amp;quot;Times New Roman&amp;quot;;&quot;&gt;&lt;font style=&quot;font-size: 12px;&quot;&gt;&lt;br&gt;&lt;/font&gt;&lt;/span&gt;&lt;/div&gt;&lt;div style=&quot;font-size: 13px;&quot;&gt;&lt;span style=&quot;background-color: initial; font-family: &amp;quot;Times New Roman&amp;quot;;&quot;&gt;&lt;font style=&quot;font-size: 12px;&quot;&gt;&lt;br&gt;&lt;/font&gt;&lt;/span&gt;&lt;/div&gt;&lt;div style=&quot;font-size: 13px;&quot;&gt;&lt;font style=&quot;font-size: 12px;&quot;&gt;&lt;span style=&quot;background-color: initial; font-family: &amp;quot;Times New Roman&amp;quot;;&quot;&gt;Q: Using data&amp;nbsp; &amp;nbsp; &amp;nbsp; &amp;nbsp; &amp;nbsp; &amp;nbsp; and&amp;nbsp; &amp;nbsp; &amp;nbsp; &amp;nbsp; &amp;nbsp; &amp;nbsp;, predict trend with explanation.&lt;/span&gt;&lt;br&gt;&lt;/font&gt;&lt;/div&gt;&lt;div style=&quot;font-size: 13px;&quot;&gt;&lt;font style=&quot;font-size: 12px;&quot;&gt;&lt;font face=&quot;Times New Roman&quot; style=&quot;font-size: 12px;&quot;&gt;&lt;span&gt;A: Trend&lt;/span&gt;&lt;/font&gt;&lt;span style=&quot;background-color: initial; font-family: &amp;quot;Times New Roman&amp;quot;;&quot;&gt;&amp;nbsp; &amp;nbsp; &amp;nbsp; &amp;nbsp;and Explanation&lt;/span&gt;&lt;/font&gt;&lt;div style=&quot;&quot;&gt;&lt;font style=&quot;font-size: 12px;&quot;&gt;&amp;nbsp; &amp;nbsp; &amp;nbsp; &amp;nbsp; &amp;nbsp; &amp;nbsp;&amp;nbsp;&lt;/font&gt;&lt;/div&gt;&lt;div style=&quot;&quot;&gt;&lt;br&gt;&lt;/div&gt;&lt;/div&gt;" style="shape=note;whiteSpace=wrap;html=1;backgroundOutline=1;darkOpacity=0.05;size=0;align=left;fillColor=#FAFAFA;fontStyle=1" parent="1" vertex="1">
          <mxGeometry x="1331" y="116" width="330" height="40" as="geometry" />
        </mxCell>
        <mxCell id="VNlArZR2CeFgTRKCGVnY-34" value="" style="shape=image;verticalLabelPosition=bottom;labelBackgroundColor=default;verticalAlign=top;aspect=fixed;imageAspect=0;image=data:image/png,iVBORw0KGgoAAAANSUhEUgAAADoAAAA5CAYAAABnLziGAAABW2lDQ1BJQ0MgUHJvZmlsZQAAKJF1kDtLA1EQhU8eEjUpLLQQFIJgoawSYhrTxYgxsMgSDT5QcHPzEpL1ullRwR9hpX8giJVtUqazESwEBREstRSENBquc7PqJooDw3wczgwzA7h7dc5LXgBlwzJTibng2vpG0PcCP/owhGGM6qzCY5qmkgXftTuad3DJejslZ13e5C/OlhqzY8+T1cPNJ89ff1f0Z3MVRvWDMsS4aQEuhVg7sLjkY+JBk5YiPpFcsLkqOWNzve1ZScWJr4kHWFHPEj8SK5kOvdDB5dI++9pBbh/IGellOYdyBCoSCGIBaSKVaBHz//gjbX8cu+A4gokdFFCERT0xUjhKyBEnYYBhGgpxGCHKiPzz7/852h7dFU0C7rKjbWtA/VWe52jj9KvAFdDY4rqp/3zV1fRW8jNhm/01oOdUiLdVwDcBtO6FeK8J0ToHPA/U2/wEtRJi8ihLqmkAAABWZVhJZk1NACoAAAAIAAGHaQAEAAAAAQAAABoAAAAAAAOShgAHAAAAEgAAAESgAgAEAAAAAQAAADqgAwAEAAAAAQAAADkAAAAAQVNDSUkAAABTY3JlZW5zaG90v9r1yQAAAdRpVFh0WE1MOmNvbS5hZG9iZS54bXAAAAAAADx4OnhtcG1ldGEgeG1sbnM6eD0iYWRvYmU6bnM6bWV0YS8iIHg6eG1wdGs9IlhNUCBDb3JlIDYuMC4wIj4KICAgPHJkZjpSREYgeG1sbnM6cmRmPSJodHRwOi8vd3d3LnczLm9yZy8xOTk5LzAyLzIyLXJkZi1zeW50YXgtbnMjIj4KICAgICAgPHJkZjpEZXNjcmlwdGlvbiByZGY6YWJvdXQ9IiIKICAgICAgICAgICAgeG1sbnM6ZXhpZj0iaHR0cDovL25zLmFkb2JlLmNvbS9leGlmLzEuMC8iPgogICAgICAgICA8ZXhpZjpQaXhlbFlEaW1lbnNpb24+NTc8L2V4aWY6UGl4ZWxZRGltZW5zaW9uPgogICAgICAgICA8ZXhpZjpQaXhlbFhEaW1lbnNpb24+NTg8L2V4aWY6UGl4ZWxYRGltZW5zaW9uPgogICAgICAgICA8ZXhpZjpVc2VyQ29tbWVudD5TY3JlZW5zaG90PC9leGlmOlVzZXJDb21tZW50PgogICAgICA8L3JkZjpEZXNjcmlwdGlvbj4KICAgPC9yZGY6UkRGPgo8L3g6eG1wbWV0YT4KuLnPzQAAA+dJREFUaAXtWk1ME0EUfktrMFGoP6FYwXgxVBM9WGOip5azXtR4MJFEI6jRmwlXm148epIIWL2SiCaGaOJFU06SqL34F4rxYgWBeAGRQqDrvMVZZrcz+1N2ya67L9nMvPdm3rxv3pufbleSCUEAqCEAGBWIIdD/LdJhRL0aUTk/CNUTxwGK7225aCmi+TfPoVgu2TLstcZRvUMI6CEBxpIiGwNItXewYug7f0vDswzOPBSLrAjkf1GQUsfW5akUSN1X13mXajVAcRxR9ERykW8UmF7PyiW90iWeCxTHSjTvNhxyau6XoZ4qpVOnibEEZTWl/EKbORqlw4wQKKapCCxG1ipQh/2t25ylzahu6x7q6DughfESjM7N255CYeratiTqMDUp0liSFwoFpV0ulwNaf30oaakv28h1oLJyxGiPGdYBSOzVsBQMC4w2yCQ7IN3UBLDwe+2o0l0ajI4p14FSJ41KBIfAkChQrGcyGYBSCW7HmiDdTABSInU5/4BySqk5mzWaNcY1oDi77OB4dqJzUncPjJJfwLkBcqEgVLg/AIAPIQSGTzabVUqUyTeuqxcN5Osl14AqDpEbEI1Qrn8Q5AmykfRcU31lgaEQ+RrCmxN5VCJLASdNmURGzk6q2papOAZUBcRJQWY8wHWW7V+PIKvj1fXrbu1qSYCSzAD2KsnrzMhsAx0vfoAfs2Uoj72DzpFOxRQFydhVo4NpiJQh66pK0hAdlHiRYzsb1JUlUcfd2BJQBDfyaAiwZKlMGEw3fNLptFKiHnkeNYy95Yk3RWYJaDJ1BIAAxTJ59DBI7TthYvY7fOob2RQnnRjEElAcqPfeHXU8vOtOl1dV3g+VBj846YSPIVAnZtFLNsKIeikaTvgSmIgKjxejVyVGOidm3w0bQqB23/i54ZyTNiXe34Z6kDeH7yrvdK+cJG/0GNK/52VUnqtyIyoCIJJ7DhXHocBsRiFQTvR9LQpMRLm7rj50dBf282ZkCageuB/5wKRuCNSP6WnkcxhRo9nxo67mrotfBn4e/2aKJRKNwMED+03beaVBDVB0rLK0DM+eDgl9jEaicKHrslDvRQUXKDq6VFkU+hvdxvyFJ2zlLYUQ6EbdJCvAMhl9grO4vArz8wumtmLN26Fxi3hvdQ3oykoVPn75aupge1sCWnYZZ8iT4cdQqfwR2tqTaINzZ88I9ahwDSgan5osQ+HVS6xyKdG2Dy52XeLq9MKfxJaIEKgZiWNt1tNn+sAAFaZuSyv/sza7gfSKHe7PtOnpGUt4WlvjwnZ48ZiZMbfTuLURdsRiG7YTj8dBMti+uUCFo/pYEZg1GhigfwHwMCZAke0M+gAAAABJRU5ErkJggg==;imageBorder=default;strokeWidth=2;fontStyle=0" parent="1" vertex="1">
          <mxGeometry x="1410" y="119" width="18.32" height="18" as="geometry" />
        </mxCell>
        <mxCell id="VNlArZR2CeFgTRKCGVnY-35" value="" style="shape=image;verticalLabelPosition=bottom;labelBackgroundColor=default;verticalAlign=top;aspect=fixed;imageAspect=0;image=https://cdn-icons-png.flaticon.com/128/2386/2386473.png;fontStyle=0" parent="1" vertex="1">
          <mxGeometry x="1465.34" y="116.99999999999993" width="22" height="22" as="geometry" />
        </mxCell>
        <mxCell id="VNlArZR2CeFgTRKCGVnY-36" value="&lt;div&gt;&lt;br&gt;&lt;/div&gt;&lt;div&gt;&lt;br&gt;&lt;/div&gt;&lt;div&gt;&lt;br&gt;&lt;/div&gt;" style="shape=singleArrow;direction=north;whiteSpace=wrap;html=1;arrowWidth=0.5;arrowSize=0.25;fillColor=#FAFAFA;strokeColor=#82b366;strokeWidth=2;fontStyle=0" parent="1" vertex="1">
          <mxGeometry x="1385" y="135" width="8" height="18" as="geometry" />
        </mxCell>
        <mxCell id="VNlArZR2CeFgTRKCGVnY-37" value="" style="shape=image;verticalLabelPosition=bottom;labelBackgroundColor=default;verticalAlign=top;aspect=fixed;imageAspect=0;image=https://cdn-icons-png.flaticon.com/128/7188/7188022.png;fillColor=#FAFAFA;fontStyle=0" parent="1" vertex="1">
          <mxGeometry x="1488.34" y="133.5" width="23" height="23" as="geometry" />
        </mxCell>
        <mxCell id="VNlArZR2CeFgTRKCGVnY-40" value="&lt;div&gt;&lt;br&gt;&lt;/div&gt;&lt;div&gt;&lt;div style=&quot;&quot;&gt;&lt;span style=&quot;font-weight: normal;&quot;&gt;&lt;font style=&quot;font-size: 12px;&quot;&gt;&amp;nbsp; &amp;nbsp; &amp;nbsp; &amp;nbsp; &amp;nbsp; &amp;nbsp;&amp;nbsp;&lt;/font&gt;&lt;/span&gt;&lt;/div&gt;&lt;div style=&quot;&quot;&gt;&lt;br&gt;&lt;/div&gt;&lt;/div&gt;" style="shape=note;whiteSpace=wrap;html=1;backgroundOutline=1;darkOpacity=0.05;size=0;align=left;fillColor=#FAFAFA;fontStyle=1" parent="1" vertex="1">
          <mxGeometry x="1337" y="169" width="330" height="40" as="geometry" />
        </mxCell>
        <mxCell id="VNlArZR2CeFgTRKCGVnY-41" value="&lt;div&gt;&lt;br&gt;&lt;/div&gt;&lt;div&gt;&lt;div style=&quot;&quot;&gt;&lt;span style=&quot;font-weight: normal;&quot;&gt;&lt;font style=&quot;font-size: 12px;&quot;&gt;&amp;nbsp; &amp;nbsp; &amp;nbsp; &amp;nbsp; &amp;nbsp; &amp;nbsp;&amp;nbsp;&lt;/font&gt;&lt;/span&gt;&lt;/div&gt;&lt;div style=&quot;&quot;&gt;&lt;br&gt;&lt;/div&gt;&lt;/div&gt;" style="shape=note;whiteSpace=wrap;html=1;backgroundOutline=1;darkOpacity=0.05;size=0;align=left;fillColor=#FAFAFA;fontStyle=1" parent="1" vertex="1">
          <mxGeometry x="1334" y="172" width="330" height="40" as="geometry" />
        </mxCell>
        <mxCell id="VNlArZR2CeFgTRKCGVnY-48" style="edgeStyle=orthogonalEdgeStyle;rounded=1;orthogonalLoop=1;jettySize=auto;html=1;exitX=0;exitY=0;exitDx=330;exitDy=20;exitPerimeter=0;entryX=0;entryY=0.5;entryDx=0;entryDy=0;endArrow=classicThin;endFill=1;curved=0;" parent="1" source="VNlArZR2CeFgTRKCGVnY-42" edge="1">
          <mxGeometry relative="1" as="geometry">
            <Array as="points">
              <mxPoint x="1680" y="195" />
              <mxPoint x="1680" y="167" />
            </Array>
            <mxPoint x="1728.35" y="167" as="targetPoint" />
          </mxGeometry>
        </mxCell>
        <mxCell id="VNlArZR2CeFgTRKCGVnY-42" value="&lt;div&gt;&lt;span style=&quot;background-color: initial; font-family: &amp;quot;Times New Roman&amp;quot;;&quot;&gt;&lt;font style=&quot;font-size: 12px;&quot;&gt;&lt;br&gt;&lt;/font&gt;&lt;/span&gt;&lt;/div&gt;&lt;div&gt;&lt;span style=&quot;background-color: initial; font-family: &amp;quot;Times New Roman&amp;quot;;&quot;&gt;&lt;font style=&quot;font-size: 12px;&quot;&gt;&lt;br&gt;&lt;/font&gt;&lt;/span&gt;&lt;/div&gt;&lt;div&gt;&lt;font style=&quot;font-size: 12px;&quot;&gt;&lt;span style=&quot;background-color: initial; font-family: &amp;quot;Times New Roman&amp;quot;;&quot;&gt;Q: Using data&amp;nbsp; &amp;nbsp; &amp;nbsp; &amp;nbsp; &amp;nbsp; &amp;nbsp; and&amp;nbsp; &amp;nbsp; &amp;nbsp; &amp;nbsp; &amp;nbsp; &amp;nbsp;, predict trend with explanation.&lt;/span&gt;&lt;br&gt;&lt;/font&gt;&lt;/div&gt;&lt;div&gt;&lt;font style=&quot;font-size: 12px;&quot;&gt;&lt;font face=&quot;Times New Roman&quot; style=&quot;font-size: 12px;&quot;&gt;&lt;span&gt;A: Trend&lt;/span&gt;&lt;/font&gt;&lt;span style=&quot;background-color: initial; font-family: &amp;quot;Times New Roman&amp;quot;;&quot;&gt;&amp;nbsp; &amp;nbsp; &amp;nbsp; &amp;nbsp;and Explanation&lt;/span&gt;&lt;/font&gt;&lt;div style=&quot;&quot;&gt;&lt;font style=&quot;font-size: 12px;&quot;&gt;&amp;nbsp; &amp;nbsp; &amp;nbsp; &amp;nbsp; &amp;nbsp; &amp;nbsp;&amp;nbsp;&lt;/font&gt;&lt;/div&gt;&lt;div style=&quot;&quot;&gt;&lt;br&gt;&lt;/div&gt;&lt;/div&gt;" style="shape=note;whiteSpace=wrap;html=1;backgroundOutline=1;darkOpacity=0.05;size=0;align=left;fillColor=#FAFAFA;fontStyle=1" parent="1" vertex="1">
          <mxGeometry x="1331" y="175" width="330" height="40" as="geometry" />
        </mxCell>
        <mxCell id="VNlArZR2CeFgTRKCGVnY-43" value="" style="shape=image;verticalLabelPosition=bottom;labelBackgroundColor=default;verticalAlign=top;aspect=fixed;imageAspect=0;image=data:image/png,iVBORw0KGgoAAAANSUhEUgAAADoAAAA5CAYAAABnLziGAAABW2lDQ1BJQ0MgUHJvZmlsZQAAKJF1kDtLA1EQhU8eEjUpLLQQFIJgoawSYhrTxYgxsMgSDT5QcHPzEpL1ullRwR9hpX8giJVtUqazESwEBREstRSENBquc7PqJooDw3wczgwzA7h7dc5LXgBlwzJTibng2vpG0PcCP/owhGGM6qzCY5qmkgXftTuad3DJejslZ13e5C/OlhqzY8+T1cPNJ89ff1f0Z3MVRvWDMsS4aQEuhVg7sLjkY+JBk5YiPpFcsLkqOWNzve1ZScWJr4kHWFHPEj8SK5kOvdDB5dI++9pBbh/IGellOYdyBCoSCGIBaSKVaBHz//gjbX8cu+A4gokdFFCERT0xUjhKyBEnYYBhGgpxGCHKiPzz7/852h7dFU0C7rKjbWtA/VWe52jj9KvAFdDY4rqp/3zV1fRW8jNhm/01oOdUiLdVwDcBtO6FeK8J0ToHPA/U2/wEtRJi8ihLqmkAAABWZVhJZk1NACoAAAAIAAGHaQAEAAAAAQAAABoAAAAAAAOShgAHAAAAEgAAAESgAgAEAAAAAQAAADqgAwAEAAAAAQAAADkAAAAAQVNDSUkAAABTY3JlZW5zaG90v9r1yQAAAdRpVFh0WE1MOmNvbS5hZG9iZS54bXAAAAAAADx4OnhtcG1ldGEgeG1sbnM6eD0iYWRvYmU6bnM6bWV0YS8iIHg6eG1wdGs9IlhNUCBDb3JlIDYuMC4wIj4KICAgPHJkZjpSREYgeG1sbnM6cmRmPSJodHRwOi8vd3d3LnczLm9yZy8xOTk5LzAyLzIyLXJkZi1zeW50YXgtbnMjIj4KICAgICAgPHJkZjpEZXNjcmlwdGlvbiByZGY6YWJvdXQ9IiIKICAgICAgICAgICAgeG1sbnM6ZXhpZj0iaHR0cDovL25zLmFkb2JlLmNvbS9leGlmLzEuMC8iPgogICAgICAgICA8ZXhpZjpQaXhlbFlEaW1lbnNpb24+NTc8L2V4aWY6UGl4ZWxZRGltZW5zaW9uPgogICAgICAgICA8ZXhpZjpQaXhlbFhEaW1lbnNpb24+NTg8L2V4aWY6UGl4ZWxYRGltZW5zaW9uPgogICAgICAgICA8ZXhpZjpVc2VyQ29tbWVudD5TY3JlZW5zaG90PC9leGlmOlVzZXJDb21tZW50PgogICAgICA8L3JkZjpEZXNjcmlwdGlvbj4KICAgPC9yZGY6UkRGPgo8L3g6eG1wbWV0YT4KuLnPzQAAA+dJREFUaAXtWk1ME0EUfktrMFGoP6FYwXgxVBM9WGOip5azXtR4MJFEI6jRmwlXm148epIIWL2SiCaGaOJFU06SqL34F4rxYgWBeAGRQqDrvMVZZrcz+1N2ya67L9nMvPdm3rxv3pufbleSCUEAqCEAGBWIIdD/LdJhRL0aUTk/CNUTxwGK7225aCmi+TfPoVgu2TLstcZRvUMI6CEBxpIiGwNItXewYug7f0vDswzOPBSLrAjkf1GQUsfW5akUSN1X13mXajVAcRxR9ERykW8UmF7PyiW90iWeCxTHSjTvNhxyau6XoZ4qpVOnibEEZTWl/EKbORqlw4wQKKapCCxG1ipQh/2t25ylzahu6x7q6DughfESjM7N255CYeratiTqMDUp0liSFwoFpV0ulwNaf30oaakv28h1oLJyxGiPGdYBSOzVsBQMC4w2yCQ7IN3UBLDwe+2o0l0ajI4p14FSJ41KBIfAkChQrGcyGYBSCW7HmiDdTABSInU5/4BySqk5mzWaNcY1oDi77OB4dqJzUncPjJJfwLkBcqEgVLg/AIAPIQSGTzabVUqUyTeuqxcN5Osl14AqDpEbEI1Qrn8Q5AmykfRcU31lgaEQ+RrCmxN5VCJLASdNmURGzk6q2papOAZUBcRJQWY8wHWW7V+PIKvj1fXrbu1qSYCSzAD2KsnrzMhsAx0vfoAfs2Uoj72DzpFOxRQFydhVo4NpiJQh66pK0hAdlHiRYzsb1JUlUcfd2BJQBDfyaAiwZKlMGEw3fNLptFKiHnkeNYy95Yk3RWYJaDJ1BIAAxTJ59DBI7TthYvY7fOob2RQnnRjEElAcqPfeHXU8vOtOl1dV3g+VBj846YSPIVAnZtFLNsKIeikaTvgSmIgKjxejVyVGOidm3w0bQqB23/i54ZyTNiXe34Z6kDeH7yrvdK+cJG/0GNK/52VUnqtyIyoCIJJ7DhXHocBsRiFQTvR9LQpMRLm7rj50dBf282ZkCageuB/5wKRuCNSP6WnkcxhRo9nxo67mrotfBn4e/2aKJRKNwMED+03beaVBDVB0rLK0DM+eDgl9jEaicKHrslDvRQUXKDq6VFkU+hvdxvyFJ2zlLYUQ6EbdJCvAMhl9grO4vArz8wumtmLN26Fxi3hvdQ3oykoVPn75aupge1sCWnYZZ8iT4cdQqfwR2tqTaINzZ88I9ahwDSgan5osQ+HVS6xyKdG2Dy52XeLq9MKfxJaIEKgZiWNt1tNn+sAAFaZuSyv/sza7gfSKHe7PtOnpGUt4WlvjwnZ48ZiZMbfTuLURdsRiG7YTj8dBMti+uUCFo/pYEZg1GhigfwHwMCZAke0M+gAAAABJRU5ErkJggg==;imageBorder=default;strokeWidth=2;fontStyle=0" parent="1" vertex="1">
          <mxGeometry x="1410" y="178" width="18.32" height="18" as="geometry" />
        </mxCell>
        <mxCell id="VNlArZR2CeFgTRKCGVnY-44" value="" style="shape=image;verticalLabelPosition=bottom;labelBackgroundColor=default;verticalAlign=top;aspect=fixed;imageAspect=0;image=https://cdn-icons-png.flaticon.com/128/2386/2386473.png;fontStyle=0" parent="1" vertex="1">
          <mxGeometry x="1465" y="175.82999999999993" width="22" height="22" as="geometry" />
        </mxCell>
        <mxCell id="VNlArZR2CeFgTRKCGVnY-46" value="" style="shape=image;verticalLabelPosition=bottom;labelBackgroundColor=default;verticalAlign=top;aspect=fixed;imageAspect=0;image=https://cdn-icons-png.flaticon.com/128/7188/7188022.png;fillColor=#FAFAFA;fontStyle=0" parent="1" vertex="1">
          <mxGeometry x="1488.34" y="192.5" width="23" height="23" as="geometry" />
        </mxCell>
        <mxCell id="VNlArZR2CeFgTRKCGVnY-50" value="&lt;span&gt;Training Knowledge&lt;/span&gt;" style="text;html=1;align=center;verticalAlign=middle;whiteSpace=wrap;rounded=0;fontStyle=1" parent="1" vertex="1">
          <mxGeometry x="1419.5200000000002" y="94.5" width="152.96" height="14.5" as="geometry" />
        </mxCell>
        <mxCell id="VNlArZR2CeFgTRKCGVnY-78" value="" style="endArrow=none;dashed=1;html=1;dashPattern=1 3;strokeWidth=2;rounded=0;fontStyle=0" parent="1" edge="1">
          <mxGeometry width="50" height="50" relative="1" as="geometry">
            <mxPoint x="1500.66" y="157.5" as="sourcePoint" />
            <mxPoint x="1501" y="169" as="targetPoint" />
          </mxGeometry>
        </mxCell>
        <mxCell id="VNlArZR2CeFgTRKCGVnY-79" value="" style="rounded=1;whiteSpace=wrap;html=1;fillColor=#E6E6E6;strokeColor=none;opacity=70;" parent="1" vertex="1">
          <mxGeometry x="1325" y="230" width="1045" height="116" as="geometry" />
        </mxCell>
        <mxCell id="VNlArZR2CeFgTRKCGVnY-117" style="edgeStyle=orthogonalEdgeStyle;rounded=1;orthogonalLoop=1;jettySize=auto;html=1;exitX=1;exitY=0.5;exitDx=0;exitDy=0;endArrow=classicThin;endFill=1;curved=0;" parent="1" target="VNlArZR2CeFgTRKCGVnY-108" edge="1">
          <mxGeometry relative="1" as="geometry">
            <Array as="points">
              <mxPoint x="1773" y="291" />
              <mxPoint x="1773" y="319" />
            </Array>
            <mxPoint x="1771.48" y="291" as="sourcePoint" />
          </mxGeometry>
        </mxCell>
        <mxCell id="VNlArZR2CeFgTRKCGVnY-86" value="&lt;span&gt;Fine-tune&lt;/span&gt;" style="rounded=0;whiteSpace=wrap;html=1;strokeColor=none;fillColor=#ececec;fontStyle=1" parent="1" vertex="1">
          <mxGeometry x="1685.14" y="284" width="36.57" height="13.75" as="geometry" />
        </mxCell>
        <mxCell id="VNlArZR2CeFgTRKCGVnY-87" value="&lt;div&gt;&lt;br&gt;&lt;/div&gt;&lt;div&gt;&lt;div style=&quot;&quot;&gt;&lt;span style=&quot;font-weight: normal;&quot;&gt;&lt;font style=&quot;font-size: 12px;&quot;&gt;&amp;nbsp; &amp;nbsp; &amp;nbsp; &amp;nbsp; &amp;nbsp; &amp;nbsp;&amp;nbsp;&lt;/font&gt;&lt;/span&gt;&lt;/div&gt;&lt;div style=&quot;&quot;&gt;&lt;br&gt;&lt;/div&gt;&lt;/div&gt;" style="shape=note;whiteSpace=wrap;html=1;backgroundOutline=1;darkOpacity=0.05;size=0;align=left;fillColor=#FAFAFA;fontStyle=1" parent="1" vertex="1">
          <mxGeometry x="1337" y="234" width="330" height="40" as="geometry" />
        </mxCell>
        <mxCell id="VNlArZR2CeFgTRKCGVnY-88" value="&lt;div&gt;&lt;br&gt;&lt;/div&gt;&lt;div&gt;&lt;div style=&quot;&quot;&gt;&lt;span style=&quot;font-weight: normal;&quot;&gt;&lt;font style=&quot;font-size: 12px;&quot;&gt;&amp;nbsp; &amp;nbsp; &amp;nbsp; &amp;nbsp; &amp;nbsp; &amp;nbsp;&amp;nbsp;&lt;/font&gt;&lt;/span&gt;&lt;/div&gt;&lt;div style=&quot;&quot;&gt;&lt;br&gt;&lt;/div&gt;&lt;/div&gt;" style="shape=note;whiteSpace=wrap;html=1;backgroundOutline=1;darkOpacity=0.05;size=0;align=left;fillColor=#FAFAFA;fontStyle=1" parent="1" vertex="1">
          <mxGeometry x="1334" y="237" width="330" height="40" as="geometry" />
        </mxCell>
        <mxCell id="VNlArZR2CeFgTRKCGVnY-89" style="edgeStyle=orthogonalEdgeStyle;rounded=1;orthogonalLoop=1;jettySize=auto;html=1;exitX=0;exitY=0;exitDx=330;exitDy=20;exitPerimeter=0;entryX=0;entryY=0.5;entryDx=0;entryDy=0;endArrow=classicThin;endFill=1;curved=0;" parent="1" source="VNlArZR2CeFgTRKCGVnY-90" edge="1">
          <mxGeometry relative="1" as="geometry">
            <Array as="points">
              <mxPoint x="1680" y="260" />
              <mxPoint x="1680" y="291" />
            </Array>
            <mxPoint x="1728.35" y="291" as="targetPoint" />
          </mxGeometry>
        </mxCell>
        <mxCell id="VNlArZR2CeFgTRKCGVnY-90" value="&lt;div&gt;&lt;span style=&quot;background-color: initial; font-family: &amp;quot;Times New Roman&amp;quot;;&quot;&gt;&lt;font style=&quot;font-size: 12px;&quot;&gt;&lt;br&gt;&lt;/font&gt;&lt;/span&gt;&lt;/div&gt;&lt;div&gt;&lt;span style=&quot;background-color: initial; font-family: &amp;quot;Times New Roman&amp;quot;;&quot;&gt;&lt;font style=&quot;font-size: 12px;&quot;&gt;&lt;br&gt;&lt;/font&gt;&lt;/span&gt;&lt;/div&gt;&lt;div&gt;&lt;font style=&quot;font-size: 12px;&quot;&gt;&lt;span style=&quot;background-color: initial; font-family: &amp;quot;Times New Roman&amp;quot;;&quot;&gt;Q: Using data&amp;nbsp; &amp;nbsp; &amp;nbsp; &amp;nbsp; &amp;nbsp; , predict trend with explanation.&lt;/span&gt;&lt;br&gt;&lt;/font&gt;&lt;/div&gt;&lt;div&gt;&lt;font style=&quot;font-size: 12px;&quot;&gt;&lt;font face=&quot;Times New Roman&quot; style=&quot;font-size: 12px;&quot;&gt;&lt;span&gt;A: Trend&lt;/span&gt;&lt;/font&gt;&lt;span style=&quot;background-color: initial; font-family: &amp;quot;Times New Roman&amp;quot;;&quot;&gt;&amp;nbsp; &amp;nbsp; &amp;nbsp; &amp;nbsp;and Explanation&lt;/span&gt;&lt;/font&gt;&lt;div style=&quot;&quot;&gt;&lt;font style=&quot;font-size: 12px;&quot;&gt;&amp;nbsp; &amp;nbsp; &amp;nbsp; &amp;nbsp; &amp;nbsp; &amp;nbsp;&amp;nbsp;&lt;/font&gt;&lt;/div&gt;&lt;div style=&quot;&quot;&gt;&lt;br&gt;&lt;/div&gt;&lt;/div&gt;" style="shape=note;whiteSpace=wrap;html=1;backgroundOutline=1;darkOpacity=0.05;size=0;align=left;fillColor=#FAFAFA;fontStyle=1" parent="1" vertex="1">
          <mxGeometry x="1331" y="240" width="330" height="40" as="geometry" />
        </mxCell>
        <mxCell id="VNlArZR2CeFgTRKCGVnY-91" value="" style="shape=image;verticalLabelPosition=bottom;labelBackgroundColor=default;verticalAlign=top;aspect=fixed;imageAspect=0;image=data:image/png,iVBORw0KGgoAAAANSUhEUgAAADoAAAA5CAYAAABnLziGAAABW2lDQ1BJQ0MgUHJvZmlsZQAAKJF1kDtLA1EQhU8eEjUpLLQQFIJgoawSYhrTxYgxsMgSDT5QcHPzEpL1ullRwR9hpX8giJVtUqazESwEBREstRSENBquc7PqJooDw3wczgwzA7h7dc5LXgBlwzJTibng2vpG0PcCP/owhGGM6qzCY5qmkgXftTuad3DJejslZ13e5C/OlhqzY8+T1cPNJ89ff1f0Z3MVRvWDMsS4aQEuhVg7sLjkY+JBk5YiPpFcsLkqOWNzve1ZScWJr4kHWFHPEj8SK5kOvdDB5dI++9pBbh/IGellOYdyBCoSCGIBaSKVaBHz//gjbX8cu+A4gokdFFCERT0xUjhKyBEnYYBhGgpxGCHKiPzz7/852h7dFU0C7rKjbWtA/VWe52jj9KvAFdDY4rqp/3zV1fRW8jNhm/01oOdUiLdVwDcBtO6FeK8J0ToHPA/U2/wEtRJi8ihLqmkAAABWZVhJZk1NACoAAAAIAAGHaQAEAAAAAQAAABoAAAAAAAOShgAHAAAAEgAAAESgAgAEAAAAAQAAADqgAwAEAAAAAQAAADkAAAAAQVNDSUkAAABTY3JlZW5zaG90v9r1yQAAAdRpVFh0WE1MOmNvbS5hZG9iZS54bXAAAAAAADx4OnhtcG1ldGEgeG1sbnM6eD0iYWRvYmU6bnM6bWV0YS8iIHg6eG1wdGs9IlhNUCBDb3JlIDYuMC4wIj4KICAgPHJkZjpSREYgeG1sbnM6cmRmPSJodHRwOi8vd3d3LnczLm9yZy8xOTk5LzAyLzIyLXJkZi1zeW50YXgtbnMjIj4KICAgICAgPHJkZjpEZXNjcmlwdGlvbiByZGY6YWJvdXQ9IiIKICAgICAgICAgICAgeG1sbnM6ZXhpZj0iaHR0cDovL25zLmFkb2JlLmNvbS9leGlmLzEuMC8iPgogICAgICAgICA8ZXhpZjpQaXhlbFlEaW1lbnNpb24+NTc8L2V4aWY6UGl4ZWxZRGltZW5zaW9uPgogICAgICAgICA8ZXhpZjpQaXhlbFhEaW1lbnNpb24+NTg8L2V4aWY6UGl4ZWxYRGltZW5zaW9uPgogICAgICAgICA8ZXhpZjpVc2VyQ29tbWVudD5TY3JlZW5zaG90PC9leGlmOlVzZXJDb21tZW50PgogICAgICA8L3JkZjpEZXNjcmlwdGlvbj4KICAgPC9yZGY6UkRGPgo8L3g6eG1wbWV0YT4KuLnPzQAAA+dJREFUaAXtWk1ME0EUfktrMFGoP6FYwXgxVBM9WGOip5azXtR4MJFEI6jRmwlXm148epIIWL2SiCaGaOJFU06SqL34F4rxYgWBeAGRQqDrvMVZZrcz+1N2ya67L9nMvPdm3rxv3pufbleSCUEAqCEAGBWIIdD/LdJhRL0aUTk/CNUTxwGK7225aCmi+TfPoVgu2TLstcZRvUMI6CEBxpIiGwNItXewYug7f0vDswzOPBSLrAjkf1GQUsfW5akUSN1X13mXajVAcRxR9ERykW8UmF7PyiW90iWeCxTHSjTvNhxyau6XoZ4qpVOnibEEZTWl/EKbORqlw4wQKKapCCxG1ipQh/2t25ylzahu6x7q6DughfESjM7N255CYeratiTqMDUp0liSFwoFpV0ulwNaf30oaakv28h1oLJyxGiPGdYBSOzVsBQMC4w2yCQ7IN3UBLDwe+2o0l0ajI4p14FSJ41KBIfAkChQrGcyGYBSCW7HmiDdTABSInU5/4BySqk5mzWaNcY1oDi77OB4dqJzUncPjJJfwLkBcqEgVLg/AIAPIQSGTzabVUqUyTeuqxcN5Osl14AqDpEbEI1Qrn8Q5AmykfRcU31lgaEQ+RrCmxN5VCJLASdNmURGzk6q2papOAZUBcRJQWY8wHWW7V+PIKvj1fXrbu1qSYCSzAD2KsnrzMhsAx0vfoAfs2Uoj72DzpFOxRQFydhVo4NpiJQh66pK0hAdlHiRYzsb1JUlUcfd2BJQBDfyaAiwZKlMGEw3fNLptFKiHnkeNYy95Yk3RWYJaDJ1BIAAxTJ59DBI7TthYvY7fOob2RQnnRjEElAcqPfeHXU8vOtOl1dV3g+VBj846YSPIVAnZtFLNsKIeikaTvgSmIgKjxejVyVGOidm3w0bQqB23/i54ZyTNiXe34Z6kDeH7yrvdK+cJG/0GNK/52VUnqtyIyoCIJJ7DhXHocBsRiFQTvR9LQpMRLm7rj50dBf282ZkCageuB/5wKRuCNSP6WnkcxhRo9nxo67mrotfBn4e/2aKJRKNwMED+03beaVBDVB0rLK0DM+eDgl9jEaicKHrslDvRQUXKDq6VFkU+hvdxvyFJ2zlLYUQ6EbdJCvAMhl9grO4vArz8wumtmLN26Fxi3hvdQ3oykoVPn75aupge1sCWnYZZ8iT4cdQqfwR2tqTaINzZ88I9ahwDSgan5osQ+HVS6xyKdG2Dy52XeLq9MKfxJaIEKgZiWNt1tNn+sAAFaZuSyv/sza7gfSKHe7PtOnpGUt4WlvjwnZ48ZiZMbfTuLURdsRiG7YTj8dBMti+uUCFo/pYEZg1GhigfwHwMCZAke0M+gAAAABJRU5ErkJggg==;imageBorder=default;strokeWidth=2;fontStyle=0" parent="1" vertex="1">
          <mxGeometry x="1410" y="243" width="18.32" height="18" as="geometry" />
        </mxCell>
        <mxCell id="VNlArZR2CeFgTRKCGVnY-93" value="&lt;div&gt;&lt;br&gt;&lt;/div&gt;&lt;div&gt;&lt;br&gt;&lt;/div&gt;&lt;div&gt;&lt;br&gt;&lt;/div&gt;" style="shape=singleArrow;direction=north;whiteSpace=wrap;html=1;arrowWidth=0.5;arrowSize=0.25;fillColor=#FAFAFA;strokeColor=#82b366;strokeWidth=2;fontStyle=0" parent="1" vertex="1">
          <mxGeometry x="1385" y="259" width="8" height="18" as="geometry" />
        </mxCell>
        <mxCell id="VNlArZR2CeFgTRKCGVnY-94" value="" style="shape=image;verticalLabelPosition=bottom;labelBackgroundColor=default;verticalAlign=top;aspect=fixed;imageAspect=0;image=https://cdn-icons-png.flaticon.com/128/7188/7188022.png;fillColor=#FAFAFA;fontStyle=0" parent="1" vertex="1">
          <mxGeometry x="1488.34" y="257.5" width="23" height="23" as="geometry" />
        </mxCell>
        <mxCell id="VNlArZR2CeFgTRKCGVnY-95" value="&lt;div&gt;&lt;br&gt;&lt;/div&gt;&lt;div&gt;&lt;div style=&quot;&quot;&gt;&lt;span style=&quot;font-weight: normal;&quot;&gt;&lt;font style=&quot;font-size: 12px;&quot;&gt;&amp;nbsp; &amp;nbsp; &amp;nbsp; &amp;nbsp; &amp;nbsp; &amp;nbsp;&amp;nbsp;&lt;/font&gt;&lt;/span&gt;&lt;/div&gt;&lt;div style=&quot;&quot;&gt;&lt;br&gt;&lt;/div&gt;&lt;/div&gt;" style="shape=note;whiteSpace=wrap;html=1;backgroundOutline=1;darkOpacity=0.05;size=0;align=left;fillColor=#FAFAFA;fontStyle=1" parent="1" vertex="1">
          <mxGeometry x="1337" y="293" width="330" height="40" as="geometry" />
        </mxCell>
        <mxCell id="VNlArZR2CeFgTRKCGVnY-96" value="&lt;div&gt;&lt;br&gt;&lt;/div&gt;&lt;div&gt;&lt;div style=&quot;&quot;&gt;&lt;span style=&quot;font-weight: normal;&quot;&gt;&lt;font style=&quot;font-size: 12px;&quot;&gt;&amp;nbsp; &amp;nbsp; &amp;nbsp; &amp;nbsp; &amp;nbsp; &amp;nbsp;&amp;nbsp;&lt;/font&gt;&lt;/span&gt;&lt;/div&gt;&lt;div style=&quot;&quot;&gt;&lt;br&gt;&lt;/div&gt;&lt;/div&gt;" style="shape=note;whiteSpace=wrap;html=1;backgroundOutline=1;darkOpacity=0.05;size=0;align=left;fillColor=#FAFAFA;fontStyle=1" parent="1" vertex="1">
          <mxGeometry x="1334" y="296" width="330" height="40" as="geometry" />
        </mxCell>
        <mxCell id="VNlArZR2CeFgTRKCGVnY-97" style="edgeStyle=orthogonalEdgeStyle;rounded=1;orthogonalLoop=1;jettySize=auto;html=1;exitX=0;exitY=0;exitDx=330;exitDy=20;exitPerimeter=0;entryX=0;entryY=0.5;entryDx=0;entryDy=0;endArrow=classicThin;endFill=1;curved=0;" parent="1" source="VNlArZR2CeFgTRKCGVnY-98" edge="1">
          <mxGeometry relative="1" as="geometry">
            <Array as="points">
              <mxPoint x="1680" y="319" />
              <mxPoint x="1680" y="291" />
            </Array>
            <mxPoint x="1728.35" y="291" as="targetPoint" />
          </mxGeometry>
        </mxCell>
        <mxCell id="VNlArZR2CeFgTRKCGVnY-98" value="&lt;div&gt;&lt;span style=&quot;background-color: initial; font-family: &amp;quot;Times New Roman&amp;quot;;&quot;&gt;&lt;font style=&quot;font-size: 12px;&quot;&gt;&lt;br&gt;&lt;/font&gt;&lt;/span&gt;&lt;/div&gt;&lt;div&gt;&lt;span style=&quot;background-color: initial; font-family: &amp;quot;Times New Roman&amp;quot;;&quot;&gt;&lt;font style=&quot;font-size: 12px;&quot;&gt;&lt;br&gt;&lt;/font&gt;&lt;/span&gt;&lt;/div&gt;&lt;div&gt;&lt;font style=&quot;font-size: 12px;&quot;&gt;&lt;span style=&quot;background-color: initial; font-family: &amp;quot;Times New Roman&amp;quot;;&quot;&gt;Q: Using data&amp;nbsp; &amp;nbsp; &amp;nbsp; &amp;nbsp; &amp;nbsp; , predict trend with explanation.&lt;/span&gt;&lt;br&gt;&lt;/font&gt;&lt;/div&gt;&lt;div&gt;&lt;font style=&quot;font-size: 12px;&quot;&gt;&lt;font face=&quot;Times New Roman&quot; style=&quot;font-size: 12px;&quot;&gt;&lt;span&gt;A: Trend&lt;/span&gt;&lt;/font&gt;&lt;span style=&quot;background-color: initial; font-family: &amp;quot;Times New Roman&amp;quot;;&quot;&gt;&amp;nbsp; &amp;nbsp; &amp;nbsp; &amp;nbsp;and Explanation&lt;/span&gt;&lt;/font&gt;&lt;div style=&quot;&quot;&gt;&lt;font style=&quot;font-size: 12px;&quot;&gt;&amp;nbsp; &amp;nbsp; &amp;nbsp; &amp;nbsp; &amp;nbsp; &amp;nbsp;&amp;nbsp;&lt;/font&gt;&lt;/div&gt;&lt;div style=&quot;&quot;&gt;&lt;br&gt;&lt;/div&gt;&lt;/div&gt;" style="shape=note;whiteSpace=wrap;html=1;backgroundOutline=1;darkOpacity=0.05;size=0;align=left;fillColor=#FAFAFA;fontStyle=1" parent="1" vertex="1">
          <mxGeometry x="1331" y="299" width="330" height="40" as="geometry" />
        </mxCell>
        <mxCell id="VNlArZR2CeFgTRKCGVnY-102" value="" style="shape=image;verticalLabelPosition=bottom;labelBackgroundColor=default;verticalAlign=top;aspect=fixed;imageAspect=0;image=https://cdn-icons-png.flaticon.com/128/7188/7188022.png;fillColor=#FAFAFA;fontStyle=0" parent="1" vertex="1">
          <mxGeometry x="1488.34" y="316.5" width="23" height="23" as="geometry" />
        </mxCell>
        <mxCell id="VNlArZR2CeFgTRKCGVnY-103" value="" style="endArrow=none;dashed=1;html=1;dashPattern=1 3;strokeWidth=2;rounded=0;fontStyle=0" parent="1" edge="1">
          <mxGeometry width="50" height="50" relative="1" as="geometry">
            <mxPoint x="1500.66" y="281.5" as="sourcePoint" />
            <mxPoint x="1501" y="293" as="targetPoint" />
          </mxGeometry>
        </mxCell>
        <mxCell id="VNlArZR2CeFgTRKCGVnY-147" style="edgeStyle=orthogonalEdgeStyle;rounded=1;orthogonalLoop=1;jettySize=auto;html=1;exitX=0;exitY=0;exitDx=280;exitDy=16.5;exitPerimeter=0;entryX=0;entryY=0.5;entryDx=0;entryDy=0;curved=0;endArrow=classicThin;endFill=1;" parent="1" target="VNlArZR2CeFgTRKCGVnY-144" edge="1">
          <mxGeometry relative="1" as="geometry">
            <mxPoint x="2056" y="257" as="sourcePoint" />
          </mxGeometry>
        </mxCell>
        <mxCell id="VNlArZR2CeFgTRKCGVnY-106" value="&lt;div&gt;&lt;span style=&quot;background-color: initial; font-family: &amp;quot;Times New Roman&amp;quot;;&quot;&gt;&lt;font style=&quot;font-size: 12px;&quot;&gt;&lt;br&gt;&lt;/font&gt;&lt;/span&gt;&lt;/div&gt;&lt;div&gt;&lt;span style=&quot;background-color: initial; font-family: &amp;quot;Times New Roman&amp;quot;;&quot;&gt;&lt;font style=&quot;font-size: 12px;&quot;&gt;&lt;br&gt;&lt;/font&gt;&lt;/span&gt;&lt;/div&gt;&lt;div&gt;&lt;font style=&quot;font-size: 12px;&quot;&gt;&lt;span style=&quot;background-color: initial; font-family: &amp;quot;Times New Roman&amp;quot;;&quot;&gt;Q: Using data&amp;nbsp; &amp;nbsp; &amp;nbsp; &amp;nbsp; &amp;nbsp; , predict trend with explanation.&lt;/span&gt;&lt;/font&gt;&lt;/div&gt;&lt;div&gt;&lt;div style=&quot;&quot;&gt;&lt;font style=&quot;font-size: 12px;&quot;&gt;&amp;nbsp; &amp;nbsp; &amp;nbsp; &amp;nbsp; &amp;nbsp; &amp;nbsp;&amp;nbsp;&lt;/font&gt;&lt;/div&gt;&lt;div style=&quot;&quot;&gt;&lt;br&gt;&lt;/div&gt;&lt;/div&gt;" style="shape=note;whiteSpace=wrap;html=1;backgroundOutline=1;darkOpacity=0.05;size=0;align=left;fillColor=#FAFAFA;fontStyle=1" parent="1" vertex="1">
          <mxGeometry x="1786" y="240.5" width="270" height="33" as="geometry" />
        </mxCell>
        <mxCell id="VNlArZR2CeFgTRKCGVnY-107" value="" style="shape=image;verticalLabelPosition=bottom;labelBackgroundColor=default;verticalAlign=top;aspect=fixed;imageAspect=0;image=data:image/png,iVBORw0KGgoAAAANSUhEUgAAADoAAAA5CAYAAABnLziGAAABW2lDQ1BJQ0MgUHJvZmlsZQAAKJF1kDtLA1EQhU8eEjUpLLQQFIJgoawSYhrTxYgxsMgSDT5QcHPzEpL1ullRwR9hpX8giJVtUqazESwEBREstRSENBquc7PqJooDw3wczgwzA7h7dc5LXgBlwzJTibng2vpG0PcCP/owhGGM6qzCY5qmkgXftTuad3DJejslZ13e5C/OlhqzY8+T1cPNJ89ff1f0Z3MVRvWDMsS4aQEuhVg7sLjkY+JBk5YiPpFcsLkqOWNzve1ZScWJr4kHWFHPEj8SK5kOvdDB5dI++9pBbh/IGellOYdyBCoSCGIBaSKVaBHz//gjbX8cu+A4gokdFFCERT0xUjhKyBEnYYBhGgpxGCHKiPzz7/852h7dFU0C7rKjbWtA/VWe52jj9KvAFdDY4rqp/3zV1fRW8jNhm/01oOdUiLdVwDcBtO6FeK8J0ToHPA/U2/wEtRJi8ihLqmkAAABWZVhJZk1NACoAAAAIAAGHaQAEAAAAAQAAABoAAAAAAAOShgAHAAAAEgAAAESgAgAEAAAAAQAAADqgAwAEAAAAAQAAADkAAAAAQVNDSUkAAABTY3JlZW5zaG90v9r1yQAAAdRpVFh0WE1MOmNvbS5hZG9iZS54bXAAAAAAADx4OnhtcG1ldGEgeG1sbnM6eD0iYWRvYmU6bnM6bWV0YS8iIHg6eG1wdGs9IlhNUCBDb3JlIDYuMC4wIj4KICAgPHJkZjpSREYgeG1sbnM6cmRmPSJodHRwOi8vd3d3LnczLm9yZy8xOTk5LzAyLzIyLXJkZi1zeW50YXgtbnMjIj4KICAgICAgPHJkZjpEZXNjcmlwdGlvbiByZGY6YWJvdXQ9IiIKICAgICAgICAgICAgeG1sbnM6ZXhpZj0iaHR0cDovL25zLmFkb2JlLmNvbS9leGlmLzEuMC8iPgogICAgICAgICA8ZXhpZjpQaXhlbFlEaW1lbnNpb24+NTc8L2V4aWY6UGl4ZWxZRGltZW5zaW9uPgogICAgICAgICA8ZXhpZjpQaXhlbFhEaW1lbnNpb24+NTg8L2V4aWY6UGl4ZWxYRGltZW5zaW9uPgogICAgICAgICA8ZXhpZjpVc2VyQ29tbWVudD5TY3JlZW5zaG90PC9leGlmOlVzZXJDb21tZW50PgogICAgICA8L3JkZjpEZXNjcmlwdGlvbj4KICAgPC9yZGY6UkRGPgo8L3g6eG1wbWV0YT4KuLnPzQAAA+dJREFUaAXtWk1ME0EUfktrMFGoP6FYwXgxVBM9WGOip5azXtR4MJFEI6jRmwlXm148epIIWL2SiCaGaOJFU06SqL34F4rxYgWBeAGRQqDrvMVZZrcz+1N2ya67L9nMvPdm3rxv3pufbleSCUEAqCEAGBWIIdD/LdJhRL0aUTk/CNUTxwGK7225aCmi+TfPoVgu2TLstcZRvUMI6CEBxpIiGwNItXewYug7f0vDswzOPBSLrAjkf1GQUsfW5akUSN1X13mXajVAcRxR9ERykW8UmF7PyiW90iWeCxTHSjTvNhxyau6XoZ4qpVOnibEEZTWl/EKbORqlw4wQKKapCCxG1ipQh/2t25ylzahu6x7q6DughfESjM7N255CYeratiTqMDUp0liSFwoFpV0ulwNaf30oaakv28h1oLJyxGiPGdYBSOzVsBQMC4w2yCQ7IN3UBLDwe+2o0l0ajI4p14FSJ41KBIfAkChQrGcyGYBSCW7HmiDdTABSInU5/4BySqk5mzWaNcY1oDi77OB4dqJzUncPjJJfwLkBcqEgVLg/AIAPIQSGTzabVUqUyTeuqxcN5Osl14AqDpEbEI1Qrn8Q5AmykfRcU31lgaEQ+RrCmxN5VCJLASdNmURGzk6q2papOAZUBcRJQWY8wHWW7V+PIKvj1fXrbu1qSYCSzAD2KsnrzMhsAx0vfoAfs2Uoj72DzpFOxRQFydhVo4NpiJQh66pK0hAdlHiRYzsb1JUlUcfd2BJQBDfyaAiwZKlMGEw3fNLptFKiHnkeNYy95Yk3RWYJaDJ1BIAAxTJ59DBI7TthYvY7fOob2RQnnRjEElAcqPfeHXU8vOtOl1dV3g+VBj846YSPIVAnZtFLNsKIeikaTvgSmIgKjxejVyVGOidm3w0bQqB23/i54ZyTNiXe34Z6kDeH7yrvdK+cJG/0GNK/52VUnqtyIyoCIJJ7DhXHocBsRiFQTvR9LQpMRLm7rj50dBf282ZkCageuB/5wKRuCNSP6WnkcxhRo9nxo67mrotfBn4e/2aKJRKNwMED+03beaVBDVB0rLK0DM+eDgl9jEaicKHrslDvRQUXKDq6VFkU+hvdxvyFJ2zlLYUQ6EbdJCvAMhl9grO4vArz8wumtmLN26Fxi3hvdQ3oykoVPn75aupge1sCWnYZZ8iT4cdQqfwR2tqTaINzZ88I9ahwDSgan5osQ+HVS6xyKdG2Dy52XeLq9MKfxJaIEKgZiWNt1tNn+sAAFaZuSyv/sza7gfSKHe7PtOnpGUt4WlvjwnZ48ZiZMbfTuLURdsRiG7YTj8dBMti+uUCFo/pYEZg1GhigfwHwMCZAke0M+gAAAABJRU5ErkJggg==;imageBorder=default;strokeWidth=2;fontStyle=0" parent="1" vertex="1">
          <mxGeometry x="1866" y="249" width="18.32" height="18" as="geometry" />
        </mxCell>
        <mxCell id="VNlArZR2CeFgTRKCGVnY-148" style="edgeStyle=orthogonalEdgeStyle;rounded=1;orthogonalLoop=1;jettySize=auto;html=1;exitX=0;exitY=0;exitDx=280;exitDy=16.5;exitPerimeter=0;entryX=0;entryY=0.5;entryDx=0;entryDy=0;curved=0;endArrow=classicThin;endFill=1;" parent="1" target="VNlArZR2CeFgTRKCGVnY-145" edge="1">
          <mxGeometry relative="1" as="geometry">
            <mxPoint x="2056" y="319" as="sourcePoint" />
          </mxGeometry>
        </mxCell>
        <mxCell id="VNlArZR2CeFgTRKCGVnY-108" value="&lt;div&gt;&lt;span style=&quot;background-color: initial; font-family: &amp;quot;Times New Roman&amp;quot;;&quot;&gt;&lt;font style=&quot;font-size: 12px;&quot;&gt;&lt;br&gt;&lt;/font&gt;&lt;/span&gt;&lt;/div&gt;&lt;div&gt;&lt;span style=&quot;background-color: initial; font-family: &amp;quot;Times New Roman&amp;quot;;&quot;&gt;&lt;font style=&quot;font-size: 12px;&quot;&gt;&lt;br&gt;&lt;/font&gt;&lt;/span&gt;&lt;/div&gt;&lt;div&gt;&lt;font style=&quot;font-size: 12px;&quot;&gt;&lt;span style=&quot;background-color: initial; font-family: &amp;quot;Times New Roman&amp;quot;;&quot;&gt;Q: Using data&amp;nbsp; &amp;nbsp; &amp;nbsp; &amp;nbsp; &amp;nbsp; , predict trend with explanation.&lt;/span&gt;&lt;/font&gt;&lt;/div&gt;&lt;div&gt;&lt;div style=&quot;&quot;&gt;&lt;font style=&quot;font-size: 12px;&quot;&gt;&amp;nbsp; &amp;nbsp; &amp;nbsp; &amp;nbsp; &amp;nbsp; &amp;nbsp;&amp;nbsp;&lt;/font&gt;&lt;/div&gt;&lt;div style=&quot;&quot;&gt;&lt;br&gt;&lt;/div&gt;&lt;/div&gt;" style="shape=note;whiteSpace=wrap;html=1;backgroundOutline=1;darkOpacity=0.05;size=0;align=left;fillColor=#FAFAFA;fontStyle=1" parent="1" vertex="1">
          <mxGeometry x="1786" y="302.5" width="270" height="33" as="geometry" />
        </mxCell>
        <mxCell id="VNlArZR2CeFgTRKCGVnY-114" value="" style="shape=image;verticalLabelPosition=bottom;labelBackgroundColor=default;verticalAlign=top;aspect=fixed;imageAspect=0;image=https://cdn-icons-png.flaticon.com/128/2386/2386473.png;fontStyle=0" parent="1" vertex="1">
          <mxGeometry x="1407.3200000000002" y="298.99999999999994" width="22" height="22" as="geometry" />
        </mxCell>
        <mxCell id="VNlArZR2CeFgTRKCGVnY-115" value="" style="shape=image;verticalLabelPosition=bottom;labelBackgroundColor=default;verticalAlign=top;aspect=fixed;imageAspect=0;image=https://cdn-icons-png.flaticon.com/128/2386/2386473.png;fontStyle=0" parent="1" vertex="1">
          <mxGeometry x="1864.16" y="306.99999999999994" width="22" height="22" as="geometry" />
        </mxCell>
        <mxCell id="VNlArZR2CeFgTRKCGVnY-116" style="edgeStyle=orthogonalEdgeStyle;rounded=1;orthogonalLoop=1;jettySize=auto;html=1;exitX=1;exitY=0.5;exitDx=0;exitDy=0;entryX=0;entryY=0.5;entryDx=0;entryDy=0;entryPerimeter=0;endArrow=classicThin;endFill=1;curved=0;" parent="1" target="VNlArZR2CeFgTRKCGVnY-106" edge="1">
          <mxGeometry relative="1" as="geometry">
            <Array as="points">
              <mxPoint x="1773" y="291" />
              <mxPoint x="1773" y="258" />
            </Array>
            <mxPoint x="1771.48" y="291" as="sourcePoint" />
          </mxGeometry>
        </mxCell>
        <mxCell id="VNlArZR2CeFgTRKCGVnY-159" style="edgeStyle=orthogonalEdgeStyle;rounded=1;orthogonalLoop=1;jettySize=auto;html=1;exitX=1;exitY=0.5;exitDx=0;exitDy=0;endArrow=classicThin;endFill=1;curved=0;" parent="1" source="VNlArZR2CeFgTRKCGVnY-144" target="VNlArZR2CeFgTRKCGVnY-158" edge="1">
          <mxGeometry relative="1" as="geometry">
            <Array as="points">
              <mxPoint x="2200" y="274" />
              <mxPoint x="2200" y="289" />
            </Array>
          </mxGeometry>
        </mxCell>
        <mxCell id="VNlArZR2CeFgTRKCGVnY-219" style="edgeStyle=orthogonalEdgeStyle;rounded=1;orthogonalLoop=1;jettySize=auto;html=1;exitX=0.5;exitY=0;exitDx=0;exitDy=0;entryX=0;entryY=0.5;entryDx=0;entryDy=0;curved=0;endArrow=classicThin;endFill=1;" parent="1" source="VNlArZR2CeFgTRKCGVnY-144" target="VNlArZR2CeFgTRKCGVnY-154" edge="1">
          <mxGeometry relative="1" as="geometry" />
        </mxCell>
        <mxCell id="VNlArZR2CeFgTRKCGVnY-144" value="&lt;p style=&quot;border-color: var(--border-color); margin: 0cm; font-family: Calibri, sans-serif;&quot; class=&quot;MsoNormal&quot;&gt;&lt;b style=&quot;text-align: left;&quot;&gt;(&quot;Rise&quot;,&amp;nbsp;&lt;/b&gt;&lt;b&gt;&lt;span style=&quot;background-color: rgb(255, 102, 102);&quot;&gt;0.46&lt;/span&gt;&lt;/b&gt;&lt;b style=&quot;text-align: left;&quot;&gt;)&lt;/b&gt;&lt;br&gt;&lt;/p&gt;" style="rounded=0;whiteSpace=wrap;html=1;align=center;fontStyle=0" parent="1" vertex="1">
          <mxGeometry x="2111.06" y="263.63" width="78.94" height="20" as="geometry" />
        </mxCell>
        <mxCell id="VNlArZR2CeFgTRKCGVnY-161" style="edgeStyle=orthogonalEdgeStyle;rounded=1;orthogonalLoop=1;jettySize=auto;html=1;exitX=1;exitY=0.5;exitDx=0;exitDy=0;endArrow=classicThin;endFill=1;curved=0;" parent="1" source="VNlArZR2CeFgTRKCGVnY-145" target="VNlArZR2CeFgTRKCGVnY-158" edge="1">
          <mxGeometry relative="1" as="geometry">
            <Array as="points">
              <mxPoint x="2200" y="303" />
              <mxPoint x="2200" y="289" />
            </Array>
          </mxGeometry>
        </mxCell>
        <mxCell id="VNlArZR2CeFgTRKCGVnY-221" style="edgeStyle=orthogonalEdgeStyle;rounded=1;orthogonalLoop=1;jettySize=auto;html=1;exitX=0.5;exitY=1;exitDx=0;exitDy=0;entryX=0;entryY=0.5;entryDx=0;entryDy=0;curved=0;endArrow=classicThin;endFill=1;" parent="1" source="VNlArZR2CeFgTRKCGVnY-145" target="VNlArZR2CeFgTRKCGVnY-155" edge="1">
          <mxGeometry relative="1" as="geometry" />
        </mxCell>
        <mxCell id="VNlArZR2CeFgTRKCGVnY-145" value="&lt;p style=&quot;text-align: left; border-color: var(--border-color); margin: 0cm; font-family: Calibri, sans-serif;&quot; class=&quot;MsoNormal&quot;&gt;&lt;b&gt;(&quot;Rise&quot;, &lt;span style=&quot;background-color: rgb(0, 204, 0);&quot;&gt;0.74&lt;/span&gt;)&lt;/b&gt;&lt;/p&gt;" style="rounded=0;whiteSpace=wrap;html=1;fontStyle=0" parent="1" vertex="1">
          <mxGeometry x="2111.06" y="293.38" width="78.94" height="20" as="geometry" />
        </mxCell>
        <mxCell id="VNlArZR2CeFgTRKCGVnY-146" value="" style="endArrow=none;dashed=1;html=1;dashPattern=1 3;strokeWidth=2;rounded=0;fontStyle=0" parent="1" edge="1">
          <mxGeometry width="50" height="50" relative="1" as="geometry">
            <mxPoint x="1943.66" y="282.5" as="sourcePoint" />
            <mxPoint x="1944" y="294" as="targetPoint" />
          </mxGeometry>
        </mxCell>
        <mxCell id="VNlArZR2CeFgTRKCGVnY-152" value="&lt;span&gt;Predict&lt;/span&gt;" style="rounded=0;whiteSpace=wrap;html=1;strokeColor=none;fillColor=none;fontStyle=1" parent="1" vertex="1">
          <mxGeometry x="2060.12" y="258" width="40" height="13.75" as="geometry" />
        </mxCell>
        <mxCell id="VNlArZR2CeFgTRKCGVnY-153" value="&lt;span&gt;Predict&lt;/span&gt;" style="rounded=0;whiteSpace=wrap;html=1;strokeColor=none;fillColor=none;fontStyle=1" parent="1" vertex="1">
          <mxGeometry x="2060.12" y="304" width="40" height="13.75" as="geometry" />
        </mxCell>
        <mxCell id="VNlArZR2CeFgTRKCGVnY-154" value="&lt;p style=&quot;text-align: left; border-color: var(--border-color); margin: 0cm; font-family: Calibri, sans-serif;&quot; class=&quot;MsoNormal&quot;&gt;&lt;b&gt;&lt;font style=&quot;border-color: var(--border-color); font-size: 12px;&quot;&gt;Trend:&amp;nbsp;Fall&amp;nbsp;&lt;/font&gt;&lt;font style=&quot;border-color: var(--border-color);&quot;&gt;Explanation:&amp;nbsp;&lt;/font&gt;&lt;span style=&quot;background-color: initial; font-family: Helvetica;&quot;&gt;...&lt;/span&gt;&lt;/b&gt;&lt;/p&gt;" style="rounded=0;whiteSpace=wrap;html=1;fontStyle=0" parent="1" vertex="1">
          <mxGeometry x="2189.08" y="233" width="170" height="20" as="geometry" />
        </mxCell>
        <mxCell id="VNlArZR2CeFgTRKCGVnY-155" value="&lt;p style=&quot;text-align: left; border-color: var(--border-color); margin: 0cm; font-family: Calibri, sans-serif;&quot; class=&quot;MsoNormal&quot;&gt;&lt;b&gt;&lt;font style=&quot;border-color: var(--border-color); font-size: 12px;&quot;&gt;Trend:&amp;nbsp;Rise&amp;nbsp;&lt;/font&gt;&lt;font style=&quot;border-color: var(--border-color);&quot;&gt;Explanation:&amp;nbsp;&lt;/font&gt;&lt;span style=&quot;background-color: initial; font-family: Helvetica;&quot;&gt;...&lt;/span&gt;&lt;/b&gt;&lt;/p&gt;" style="rounded=0;whiteSpace=wrap;html=1;fontStyle=0" parent="1" vertex="1">
          <mxGeometry x="2189.08" y="323.5" width="170" height="20" as="geometry" />
        </mxCell>
        <mxCell id="VNlArZR2CeFgTRKCGVnY-158" value="&lt;p style=&quot;text-align: left; border-color: var(--border-color); margin: 0cm; font-family: Calibri, sans-serif;&quot; class=&quot;MsoNormal&quot;&gt;&lt;b&gt;(&quot;Rise&quot;,&amp;nbsp;&lt;span style=&quot;background-color: rgb(51, 255, 51);&quot;&gt;0.60&lt;/span&gt;)&lt;/b&gt;&lt;br&gt;&lt;/p&gt;" style="rounded=0;whiteSpace=wrap;html=1;" parent="1" vertex="1">
          <mxGeometry x="2280" y="269.13" width="80" height="40" as="geometry" />
        </mxCell>
        <mxCell id="VNlArZR2CeFgTRKCGVnY-162" value="&lt;b&gt;Average&lt;/b&gt;" style="rounded=0;whiteSpace=wrap;html=1;strokeColor=none;fillColor=#ececec;" parent="1" vertex="1">
          <mxGeometry x="2207" y="282.25" width="50" height="13.75" as="geometry" />
        </mxCell>
        <mxCell id="VNlArZR2CeFgTRKCGVnY-166" value="" style="rounded=1;whiteSpace=wrap;html=1;fillColor=#E6E6E6;strokeColor=none;opacity=70;" parent="1" vertex="1">
          <mxGeometry x="1324" y="358" width="1046" height="115" as="geometry" />
        </mxCell>
        <mxCell id="VNlArZR2CeFgTRKCGVnY-170" value="&lt;div&gt;&lt;br&gt;&lt;/div&gt;&lt;div&gt;&lt;div style=&quot;&quot;&gt;&lt;span style=&quot;font-weight: normal;&quot;&gt;&lt;font style=&quot;font-size: 12px;&quot;&gt;&amp;nbsp; &amp;nbsp; &amp;nbsp; &amp;nbsp; &amp;nbsp; &amp;nbsp;&amp;nbsp;&lt;/font&gt;&lt;/span&gt;&lt;/div&gt;&lt;div style=&quot;&quot;&gt;&lt;br&gt;&lt;/div&gt;&lt;/div&gt;" style="shape=note;whiteSpace=wrap;html=1;backgroundOutline=1;darkOpacity=0.05;size=0;align=left;fillColor=#FAFAFA;fontStyle=1" parent="1" vertex="1">
          <mxGeometry x="1337" y="362" width="330" height="40" as="geometry" />
        </mxCell>
        <mxCell id="VNlArZR2CeFgTRKCGVnY-171" value="&lt;div&gt;&lt;br&gt;&lt;/div&gt;&lt;div&gt;&lt;div style=&quot;&quot;&gt;&lt;span style=&quot;font-weight: normal;&quot;&gt;&lt;font style=&quot;font-size: 12px;&quot;&gt;&amp;nbsp; &amp;nbsp; &amp;nbsp; &amp;nbsp; &amp;nbsp; &amp;nbsp;&amp;nbsp;&lt;/font&gt;&lt;/span&gt;&lt;/div&gt;&lt;div style=&quot;&quot;&gt;&lt;br&gt;&lt;/div&gt;&lt;/div&gt;" style="shape=note;whiteSpace=wrap;html=1;backgroundOutline=1;darkOpacity=0.05;size=0;align=left;fillColor=#FAFAFA;fontStyle=1" parent="1" vertex="1">
          <mxGeometry x="1334" y="365" width="330" height="40" as="geometry" />
        </mxCell>
        <mxCell id="VNlArZR2CeFgTRKCGVnY-212" style="edgeStyle=orthogonalEdgeStyle;rounded=0;orthogonalLoop=1;jettySize=auto;html=1;exitX=0;exitY=0;exitDx=330;exitDy=20;exitPerimeter=0;entryX=0;entryY=0.5;entryDx=0;entryDy=0;endArrow=classicThin;endFill=1;" parent="1" source="VNlArZR2CeFgTRKCGVnY-173" edge="1">
          <mxGeometry relative="1" as="geometry">
            <mxPoint x="1736.7399999999998" y="388" as="targetPoint" />
          </mxGeometry>
        </mxCell>
        <mxCell id="VNlArZR2CeFgTRKCGVnY-173" value="&lt;div&gt;&lt;span style=&quot;background-color: initial; font-family: &amp;quot;Times New Roman&amp;quot;;&quot;&gt;&lt;font style=&quot;font-size: 12px;&quot;&gt;&lt;br&gt;&lt;/font&gt;&lt;/span&gt;&lt;/div&gt;&lt;div&gt;&lt;span style=&quot;background-color: initial; font-family: &amp;quot;Times New Roman&amp;quot;;&quot;&gt;&lt;font style=&quot;font-size: 12px;&quot;&gt;&lt;br&gt;&lt;/font&gt;&lt;/span&gt;&lt;/div&gt;&lt;div&gt;&lt;font style=&quot;font-size: 12px;&quot;&gt;&lt;span style=&quot;background-color: initial; font-family: &amp;quot;Times New Roman&amp;quot;;&quot;&gt;Q: Using data&amp;nbsp; &amp;nbsp; &amp;nbsp; &amp;nbsp; &amp;nbsp; , predict trend with explanation.&lt;/span&gt;&lt;br&gt;&lt;/font&gt;&lt;/div&gt;&lt;div&gt;&lt;font style=&quot;font-size: 12px;&quot;&gt;&lt;font face=&quot;Times New Roman&quot; style=&quot;font-size: 12px;&quot;&gt;&lt;span&gt;A: Trend&lt;/span&gt;&lt;/font&gt;&lt;span style=&quot;background-color: initial; font-family: &amp;quot;Times New Roman&amp;quot;;&quot;&gt;&amp;nbsp; &amp;nbsp; &amp;nbsp; &amp;nbsp;and Explanation&lt;/span&gt;&lt;/font&gt;&lt;div style=&quot;&quot;&gt;&lt;font style=&quot;font-size: 12px;&quot;&gt;&amp;nbsp; &amp;nbsp; &amp;nbsp; &amp;nbsp; &amp;nbsp; &amp;nbsp;&amp;nbsp;&lt;/font&gt;&lt;/div&gt;&lt;div style=&quot;&quot;&gt;&lt;br&gt;&lt;/div&gt;&lt;/div&gt;" style="shape=note;whiteSpace=wrap;html=1;backgroundOutline=1;darkOpacity=0.05;size=0;align=left;fillColor=#FAFAFA;fontStyle=1" parent="1" vertex="1">
          <mxGeometry x="1331" y="368" width="330" height="40" as="geometry" />
        </mxCell>
        <mxCell id="VNlArZR2CeFgTRKCGVnY-174" value="" style="shape=image;verticalLabelPosition=bottom;labelBackgroundColor=default;verticalAlign=top;aspect=fixed;imageAspect=0;image=data:image/png,iVBORw0KGgoAAAANSUhEUgAAADoAAAA5CAYAAABnLziGAAABW2lDQ1BJQ0MgUHJvZmlsZQAAKJF1kDtLA1EQhU8eEjUpLLQQFIJgoawSYhrTxYgxsMgSDT5QcHPzEpL1ullRwR9hpX8giJVtUqazESwEBREstRSENBquc7PqJooDw3wczgwzA7h7dc5LXgBlwzJTibng2vpG0PcCP/owhGGM6qzCY5qmkgXftTuad3DJejslZ13e5C/OlhqzY8+T1cPNJ89ff1f0Z3MVRvWDMsS4aQEuhVg7sLjkY+JBk5YiPpFcsLkqOWNzve1ZScWJr4kHWFHPEj8SK5kOvdDB5dI++9pBbh/IGellOYdyBCoSCGIBaSKVaBHz//gjbX8cu+A4gokdFFCERT0xUjhKyBEnYYBhGgpxGCHKiPzz7/852h7dFU0C7rKjbWtA/VWe52jj9KvAFdDY4rqp/3zV1fRW8jNhm/01oOdUiLdVwDcBtO6FeK8J0ToHPA/U2/wEtRJi8ihLqmkAAABWZVhJZk1NACoAAAAIAAGHaQAEAAAAAQAAABoAAAAAAAOShgAHAAAAEgAAAESgAgAEAAAAAQAAADqgAwAEAAAAAQAAADkAAAAAQVNDSUkAAABTY3JlZW5zaG90v9r1yQAAAdRpVFh0WE1MOmNvbS5hZG9iZS54bXAAAAAAADx4OnhtcG1ldGEgeG1sbnM6eD0iYWRvYmU6bnM6bWV0YS8iIHg6eG1wdGs9IlhNUCBDb3JlIDYuMC4wIj4KICAgPHJkZjpSREYgeG1sbnM6cmRmPSJodHRwOi8vd3d3LnczLm9yZy8xOTk5LzAyLzIyLXJkZi1zeW50YXgtbnMjIj4KICAgICAgPHJkZjpEZXNjcmlwdGlvbiByZGY6YWJvdXQ9IiIKICAgICAgICAgICAgeG1sbnM6ZXhpZj0iaHR0cDovL25zLmFkb2JlLmNvbS9leGlmLzEuMC8iPgogICAgICAgICA8ZXhpZjpQaXhlbFlEaW1lbnNpb24+NTc8L2V4aWY6UGl4ZWxZRGltZW5zaW9uPgogICAgICAgICA8ZXhpZjpQaXhlbFhEaW1lbnNpb24+NTg8L2V4aWY6UGl4ZWxYRGltZW5zaW9uPgogICAgICAgICA8ZXhpZjpVc2VyQ29tbWVudD5TY3JlZW5zaG90PC9leGlmOlVzZXJDb21tZW50PgogICAgICA8L3JkZjpEZXNjcmlwdGlvbj4KICAgPC9yZGY6UkRGPgo8L3g6eG1wbWV0YT4KuLnPzQAAA+dJREFUaAXtWk1ME0EUfktrMFGoP6FYwXgxVBM9WGOip5azXtR4MJFEI6jRmwlXm148epIIWL2SiCaGaOJFU06SqL34F4rxYgWBeAGRQqDrvMVZZrcz+1N2ya67L9nMvPdm3rxv3pufbleSCUEAqCEAGBWIIdD/LdJhRL0aUTk/CNUTxwGK7225aCmi+TfPoVgu2TLstcZRvUMI6CEBxpIiGwNItXewYug7f0vDswzOPBSLrAjkf1GQUsfW5akUSN1X13mXajVAcRxR9ERykW8UmF7PyiW90iWeCxTHSjTvNhxyau6XoZ4qpVOnibEEZTWl/EKbORqlw4wQKKapCCxG1ipQh/2t25ylzahu6x7q6DughfESjM7N255CYeratiTqMDUp0liSFwoFpV0ulwNaf30oaakv28h1oLJyxGiPGdYBSOzVsBQMC4w2yCQ7IN3UBLDwe+2o0l0ajI4p14FSJ41KBIfAkChQrGcyGYBSCW7HmiDdTABSInU5/4BySqk5mzWaNcY1oDi77OB4dqJzUncPjJJfwLkBcqEgVLg/AIAPIQSGTzabVUqUyTeuqxcN5Osl14AqDpEbEI1Qrn8Q5AmykfRcU31lgaEQ+RrCmxN5VCJLASdNmURGzk6q2papOAZUBcRJQWY8wHWW7V+PIKvj1fXrbu1qSYCSzAD2KsnrzMhsAx0vfoAfs2Uoj72DzpFOxRQFydhVo4NpiJQh66pK0hAdlHiRYzsb1JUlUcfd2BJQBDfyaAiwZKlMGEw3fNLptFKiHnkeNYy95Yk3RWYJaDJ1BIAAxTJ59DBI7TthYvY7fOob2RQnnRjEElAcqPfeHXU8vOtOl1dV3g+VBj846YSPIVAnZtFLNsKIeikaTvgSmIgKjxejVyVGOidm3w0bQqB23/i54ZyTNiXe34Z6kDeH7yrvdK+cJG/0GNK/52VUnqtyIyoCIJJ7DhXHocBsRiFQTvR9LQpMRLm7rj50dBf282ZkCageuB/5wKRuCNSP6WnkcxhRo9nxo67mrotfBn4e/2aKJRKNwMED+03beaVBDVB0rLK0DM+eDgl9jEaicKHrslDvRQUXKDq6VFkU+hvdxvyFJ2zlLYUQ6EbdJCvAMhl9grO4vArz8wumtmLN26Fxi3hvdQ3oykoVPn75aupge1sCWnYZZ8iT4cdQqfwR2tqTaINzZ88I9ahwDSgan5osQ+HVS6xyKdG2Dy52XeLq9MKfxJaIEKgZiWNt1tNn+sAAFaZuSyv/sza7gfSKHe7PtOnpGUt4WlvjwnZ48ZiZMbfTuLURdsRiG7YTj8dBMti+uUCFo/pYEZg1GhigfwHwMCZAke0M+gAAAABJRU5ErkJggg==;imageBorder=default;strokeWidth=2;fontStyle=0" parent="1" vertex="1">
          <mxGeometry x="1410" y="371" width="18.32" height="18" as="geometry" />
        </mxCell>
        <mxCell id="VNlArZR2CeFgTRKCGVnY-175" value="&lt;div&gt;&lt;br&gt;&lt;/div&gt;&lt;div&gt;&lt;br&gt;&lt;/div&gt;&lt;div&gt;&lt;br&gt;&lt;/div&gt;" style="shape=singleArrow;direction=north;whiteSpace=wrap;html=1;arrowWidth=0.5;arrowSize=0.25;fillColor=#FAFAFA;strokeColor=#82b366;strokeWidth=2;fontStyle=0" parent="1" vertex="1">
          <mxGeometry x="1385" y="387" width="8" height="18" as="geometry" />
        </mxCell>
        <mxCell id="VNlArZR2CeFgTRKCGVnY-176" value="" style="shape=image;verticalLabelPosition=bottom;labelBackgroundColor=default;verticalAlign=top;aspect=fixed;imageAspect=0;image=https://cdn-icons-png.flaticon.com/128/7188/7188022.png;fillColor=#FAFAFA;fontStyle=0" parent="1" vertex="1">
          <mxGeometry x="1488.34" y="385.5" width="23" height="23" as="geometry" />
        </mxCell>
        <mxCell id="VNlArZR2CeFgTRKCGVnY-177" value="&lt;div&gt;&lt;br&gt;&lt;/div&gt;&lt;div&gt;&lt;div style=&quot;&quot;&gt;&lt;span style=&quot;font-weight: normal;&quot;&gt;&lt;font style=&quot;font-size: 12px;&quot;&gt;&amp;nbsp; &amp;nbsp; &amp;nbsp; &amp;nbsp; &amp;nbsp; &amp;nbsp;&amp;nbsp;&lt;/font&gt;&lt;/span&gt;&lt;/div&gt;&lt;div style=&quot;&quot;&gt;&lt;br&gt;&lt;/div&gt;&lt;/div&gt;" style="shape=note;whiteSpace=wrap;html=1;backgroundOutline=1;darkOpacity=0.05;size=0;align=left;fillColor=#FAFAFA;fontStyle=1" parent="1" vertex="1">
          <mxGeometry x="1337" y="421" width="330" height="40" as="geometry" />
        </mxCell>
        <mxCell id="VNlArZR2CeFgTRKCGVnY-178" value="&lt;div&gt;&lt;br&gt;&lt;/div&gt;&lt;div&gt;&lt;div style=&quot;&quot;&gt;&lt;span style=&quot;font-weight: normal;&quot;&gt;&lt;font style=&quot;font-size: 12px;&quot;&gt;&amp;nbsp; &amp;nbsp; &amp;nbsp; &amp;nbsp; &amp;nbsp; &amp;nbsp;&amp;nbsp;&lt;/font&gt;&lt;/span&gt;&lt;/div&gt;&lt;div style=&quot;&quot;&gt;&lt;br&gt;&lt;/div&gt;&lt;/div&gt;" style="shape=note;whiteSpace=wrap;html=1;backgroundOutline=1;darkOpacity=0.05;size=0;align=left;fillColor=#FAFAFA;fontStyle=1" parent="1" vertex="1">
          <mxGeometry x="1334" y="424" width="330" height="40" as="geometry" />
        </mxCell>
        <mxCell id="VNlArZR2CeFgTRKCGVnY-211" style="edgeStyle=orthogonalEdgeStyle;rounded=0;orthogonalLoop=1;jettySize=auto;html=1;exitX=0;exitY=0;exitDx=330;exitDy=20;exitPerimeter=0;entryX=0;entryY=0.5;entryDx=0;entryDy=0;endArrow=classicThin;endFill=1;" parent="1" source="VNlArZR2CeFgTRKCGVnY-180" edge="1">
          <mxGeometry relative="1" as="geometry">
            <mxPoint x="1735.1999999999998" y="447.1400000000001" as="targetPoint" />
          </mxGeometry>
        </mxCell>
        <mxCell id="VNlArZR2CeFgTRKCGVnY-180" value="&lt;div&gt;&lt;span style=&quot;background-color: initial; font-family: &amp;quot;Times New Roman&amp;quot;;&quot;&gt;&lt;font style=&quot;font-size: 12px;&quot;&gt;&lt;br&gt;&lt;/font&gt;&lt;/span&gt;&lt;/div&gt;&lt;div&gt;&lt;span style=&quot;background-color: initial; font-family: &amp;quot;Times New Roman&amp;quot;;&quot;&gt;&lt;font style=&quot;font-size: 12px;&quot;&gt;&lt;br&gt;&lt;/font&gt;&lt;/span&gt;&lt;/div&gt;&lt;div&gt;&lt;font style=&quot;font-size: 12px;&quot;&gt;&lt;span style=&quot;background-color: initial; font-family: &amp;quot;Times New Roman&amp;quot;;&quot;&gt;Q: Using data&amp;nbsp; &amp;nbsp; &amp;nbsp; &amp;nbsp; &amp;nbsp; , predict trend with explanation.&lt;/span&gt;&lt;br&gt;&lt;/font&gt;&lt;/div&gt;&lt;div&gt;&lt;font style=&quot;font-size: 12px;&quot;&gt;&lt;font face=&quot;Times New Roman&quot; style=&quot;font-size: 12px;&quot;&gt;&lt;span&gt;A: Trend&lt;/span&gt;&lt;/font&gt;&lt;span style=&quot;background-color: initial; font-family: &amp;quot;Times New Roman&amp;quot;;&quot;&gt;&amp;nbsp; &amp;nbsp; &amp;nbsp; &amp;nbsp;and Explanation&lt;/span&gt;&lt;/font&gt;&lt;div style=&quot;&quot;&gt;&lt;font style=&quot;font-size: 12px;&quot;&gt;&amp;nbsp; &amp;nbsp; &amp;nbsp; &amp;nbsp; &amp;nbsp; &amp;nbsp;&amp;nbsp;&lt;/font&gt;&lt;/div&gt;&lt;div style=&quot;&quot;&gt;&lt;br&gt;&lt;/div&gt;&lt;/div&gt;" style="shape=note;whiteSpace=wrap;html=1;backgroundOutline=1;darkOpacity=0.05;size=0;align=left;fillColor=#FAFAFA;fontStyle=1" parent="1" vertex="1">
          <mxGeometry x="1331" y="427" width="330" height="40" as="geometry" />
        </mxCell>
        <mxCell id="VNlArZR2CeFgTRKCGVnY-182" value="" style="shape=image;verticalLabelPosition=bottom;labelBackgroundColor=default;verticalAlign=top;aspect=fixed;imageAspect=0;image=https://cdn-icons-png.flaticon.com/128/7188/7188022.png;fillColor=#FAFAFA;fontStyle=0" parent="1" vertex="1">
          <mxGeometry x="1488.34" y="444.5" width="23" height="23" as="geometry" />
        </mxCell>
        <mxCell id="VNlArZR2CeFgTRKCGVnY-183" value="" style="endArrow=none;dashed=1;html=1;dashPattern=1 3;strokeWidth=2;rounded=0;fontStyle=0" parent="1" edge="1">
          <mxGeometry width="50" height="50" relative="1" as="geometry">
            <mxPoint x="1486.66" y="413.5" as="sourcePoint" />
            <mxPoint x="1506" y="414" as="targetPoint" />
          </mxGeometry>
        </mxCell>
        <mxCell id="VNlArZR2CeFgTRKCGVnY-184" style="edgeStyle=orthogonalEdgeStyle;rounded=1;orthogonalLoop=1;jettySize=auto;html=1;exitX=0;exitY=0;exitDx=280;exitDy=16.5;exitPerimeter=0;entryX=0;entryY=0.5;entryDx=0;entryDy=0;curved=0;endArrow=classicThin;endFill=1;" parent="1" target="VNlArZR2CeFgTRKCGVnY-194" edge="1">
          <mxGeometry relative="1" as="geometry">
            <mxPoint x="2056" y="388" as="sourcePoint" />
          </mxGeometry>
        </mxCell>
        <mxCell id="VNlArZR2CeFgTRKCGVnY-185" value="&lt;div&gt;&lt;span style=&quot;background-color: initial; font-family: &amp;quot;Times New Roman&amp;quot;;&quot;&gt;&lt;font style=&quot;font-size: 12px;&quot;&gt;&lt;br&gt;&lt;/font&gt;&lt;/span&gt;&lt;/div&gt;&lt;div&gt;&lt;span style=&quot;background-color: initial; font-family: &amp;quot;Times New Roman&amp;quot;;&quot;&gt;&lt;font style=&quot;font-size: 12px;&quot;&gt;&lt;br&gt;&lt;/font&gt;&lt;/span&gt;&lt;/div&gt;&lt;div&gt;&lt;font style=&quot;font-size: 12px;&quot;&gt;&lt;span style=&quot;background-color: initial; font-family: &amp;quot;Times New Roman&amp;quot;;&quot;&gt;Q: Using data&amp;nbsp; &amp;nbsp; &amp;nbsp; &amp;nbsp; &amp;nbsp; , predict trend with explanation.&lt;/span&gt;&lt;/font&gt;&lt;/div&gt;&lt;div&gt;&lt;div style=&quot;&quot;&gt;&lt;font style=&quot;font-size: 12px;&quot;&gt;&amp;nbsp; &amp;nbsp; &amp;nbsp; &amp;nbsp; &amp;nbsp; &amp;nbsp;&amp;nbsp;&lt;/font&gt;&lt;/div&gt;&lt;div style=&quot;&quot;&gt;&lt;br&gt;&lt;/div&gt;&lt;/div&gt;" style="shape=note;whiteSpace=wrap;html=1;backgroundOutline=1;darkOpacity=0.05;size=0;align=left;fillColor=#FAFAFA;fontStyle=1" parent="1" vertex="1">
          <mxGeometry x="1786" y="371.5" width="270" height="33" as="geometry" />
        </mxCell>
        <mxCell id="VNlArZR2CeFgTRKCGVnY-186" value="" style="shape=image;verticalLabelPosition=bottom;labelBackgroundColor=default;verticalAlign=top;aspect=fixed;imageAspect=0;image=data:image/png,iVBORw0KGgoAAAANSUhEUgAAADoAAAA5CAYAAABnLziGAAABW2lDQ1BJQ0MgUHJvZmlsZQAAKJF1kDtLA1EQhU8eEjUpLLQQFIJgoawSYhrTxYgxsMgSDT5QcHPzEpL1ullRwR9hpX8giJVtUqazESwEBREstRSENBquc7PqJooDw3wczgwzA7h7dc5LXgBlwzJTibng2vpG0PcCP/owhGGM6qzCY5qmkgXftTuad3DJejslZ13e5C/OlhqzY8+T1cPNJ89ff1f0Z3MVRvWDMsS4aQEuhVg7sLjkY+JBk5YiPpFcsLkqOWNzve1ZScWJr4kHWFHPEj8SK5kOvdDB5dI++9pBbh/IGellOYdyBCoSCGIBaSKVaBHz//gjbX8cu+A4gokdFFCERT0xUjhKyBEnYYBhGgpxGCHKiPzz7/852h7dFU0C7rKjbWtA/VWe52jj9KvAFdDY4rqp/3zV1fRW8jNhm/01oOdUiLdVwDcBtO6FeK8J0ToHPA/U2/wEtRJi8ihLqmkAAABWZVhJZk1NACoAAAAIAAGHaQAEAAAAAQAAABoAAAAAAAOShgAHAAAAEgAAAESgAgAEAAAAAQAAADqgAwAEAAAAAQAAADkAAAAAQVNDSUkAAABTY3JlZW5zaG90v9r1yQAAAdRpVFh0WE1MOmNvbS5hZG9iZS54bXAAAAAAADx4OnhtcG1ldGEgeG1sbnM6eD0iYWRvYmU6bnM6bWV0YS8iIHg6eG1wdGs9IlhNUCBDb3JlIDYuMC4wIj4KICAgPHJkZjpSREYgeG1sbnM6cmRmPSJodHRwOi8vd3d3LnczLm9yZy8xOTk5LzAyLzIyLXJkZi1zeW50YXgtbnMjIj4KICAgICAgPHJkZjpEZXNjcmlwdGlvbiByZGY6YWJvdXQ9IiIKICAgICAgICAgICAgeG1sbnM6ZXhpZj0iaHR0cDovL25zLmFkb2JlLmNvbS9leGlmLzEuMC8iPgogICAgICAgICA8ZXhpZjpQaXhlbFlEaW1lbnNpb24+NTc8L2V4aWY6UGl4ZWxZRGltZW5zaW9uPgogICAgICAgICA8ZXhpZjpQaXhlbFhEaW1lbnNpb24+NTg8L2V4aWY6UGl4ZWxYRGltZW5zaW9uPgogICAgICAgICA8ZXhpZjpVc2VyQ29tbWVudD5TY3JlZW5zaG90PC9leGlmOlVzZXJDb21tZW50PgogICAgICA8L3JkZjpEZXNjcmlwdGlvbj4KICAgPC9yZGY6UkRGPgo8L3g6eG1wbWV0YT4KuLnPzQAAA+dJREFUaAXtWk1ME0EUfktrMFGoP6FYwXgxVBM9WGOip5azXtR4MJFEI6jRmwlXm148epIIWL2SiCaGaOJFU06SqL34F4rxYgWBeAGRQqDrvMVZZrcz+1N2ya67L9nMvPdm3rxv3pufbleSCUEAqCEAGBWIIdD/LdJhRL0aUTk/CNUTxwGK7225aCmi+TfPoVgu2TLstcZRvUMI6CEBxpIiGwNItXewYug7f0vDswzOPBSLrAjkf1GQUsfW5akUSN1X13mXajVAcRxR9ERykW8UmF7PyiW90iWeCxTHSjTvNhxyau6XoZ4qpVOnibEEZTWl/EKbORqlw4wQKKapCCxG1ipQh/2t25ylzahu6x7q6DughfESjM7N255CYeratiTqMDUp0liSFwoFpV0ulwNaf30oaakv28h1oLJyxGiPGdYBSOzVsBQMC4w2yCQ7IN3UBLDwe+2o0l0ajI4p14FSJ41KBIfAkChQrGcyGYBSCW7HmiDdTABSInU5/4BySqk5mzWaNcY1oDi77OB4dqJzUncPjJJfwLkBcqEgVLg/AIAPIQSGTzabVUqUyTeuqxcN5Osl14AqDpEbEI1Qrn8Q5AmykfRcU31lgaEQ+RrCmxN5VCJLASdNmURGzk6q2papOAZUBcRJQWY8wHWW7V+PIKvj1fXrbu1qSYCSzAD2KsnrzMhsAx0vfoAfs2Uoj72DzpFOxRQFydhVo4NpiJQh66pK0hAdlHiRYzsb1JUlUcfd2BJQBDfyaAiwZKlMGEw3fNLptFKiHnkeNYy95Yk3RWYJaDJ1BIAAxTJ59DBI7TthYvY7fOob2RQnnRjEElAcqPfeHXU8vOtOl1dV3g+VBj846YSPIVAnZtFLNsKIeikaTvgSmIgKjxejVyVGOidm3w0bQqB23/i54ZyTNiXe34Z6kDeH7yrvdK+cJG/0GNK/52VUnqtyIyoCIJJ7DhXHocBsRiFQTvR9LQpMRLm7rj50dBf282ZkCageuB/5wKRuCNSP6WnkcxhRo9nxo67mrotfBn4e/2aKJRKNwMED+03beaVBDVB0rLK0DM+eDgl9jEaicKHrslDvRQUXKDq6VFkU+hvdxvyFJ2zlLYUQ6EbdJCvAMhl9grO4vArz8wumtmLN26Fxi3hvdQ3oykoVPn75aupge1sCWnYZZ8iT4cdQqfwR2tqTaINzZ88I9ahwDSgan5osQ+HVS6xyKdG2Dy52XeLq9MKfxJaIEKgZiWNt1tNn+sAAFaZuSyv/sza7gfSKHe7PtOnpGUt4WlvjwnZ48ZiZMbfTuLURdsRiG7YTj8dBMti+uUCFo/pYEZg1GhigfwHwMCZAke0M+gAAAABJRU5ErkJggg==;imageBorder=default;strokeWidth=2;fontStyle=0" parent="1" vertex="1">
          <mxGeometry x="1866" y="377" width="18.32" height="18" as="geometry" />
        </mxCell>
        <mxCell id="VNlArZR2CeFgTRKCGVnY-187" style="edgeStyle=orthogonalEdgeStyle;rounded=1;orthogonalLoop=1;jettySize=auto;html=1;exitX=0;exitY=0;exitDx=280;exitDy=16.5;exitPerimeter=0;entryX=0;entryY=0.5;entryDx=0;entryDy=0;curved=0;endArrow=classicThin;endFill=1;" parent="1" target="VNlArZR2CeFgTRKCGVnY-197" edge="1">
          <mxGeometry relative="1" as="geometry">
            <mxPoint x="2056" y="447" as="sourcePoint" />
          </mxGeometry>
        </mxCell>
        <mxCell id="VNlArZR2CeFgTRKCGVnY-188" value="&lt;div&gt;&lt;span style=&quot;background-color: initial; font-family: &amp;quot;Times New Roman&amp;quot;;&quot;&gt;&lt;font style=&quot;font-size: 12px;&quot;&gt;&lt;br&gt;&lt;/font&gt;&lt;/span&gt;&lt;/div&gt;&lt;div&gt;&lt;span style=&quot;background-color: initial; font-family: &amp;quot;Times New Roman&amp;quot;;&quot;&gt;&lt;font style=&quot;font-size: 12px;&quot;&gt;&lt;br&gt;&lt;/font&gt;&lt;/span&gt;&lt;/div&gt;&lt;div&gt;&lt;font style=&quot;font-size: 12px;&quot;&gt;&lt;span style=&quot;background-color: initial; font-family: &amp;quot;Times New Roman&amp;quot;;&quot;&gt;Q: Using data&amp;nbsp; &amp;nbsp; &amp;nbsp; &amp;nbsp; &amp;nbsp; , predict trend with explanation.&lt;/span&gt;&lt;/font&gt;&lt;/div&gt;&lt;div&gt;&lt;div style=&quot;&quot;&gt;&lt;font style=&quot;font-size: 12px;&quot;&gt;&amp;nbsp; &amp;nbsp; &amp;nbsp; &amp;nbsp; &amp;nbsp; &amp;nbsp;&amp;nbsp;&lt;/font&gt;&lt;/div&gt;&lt;div style=&quot;&quot;&gt;&lt;br&gt;&lt;/div&gt;&lt;/div&gt;" style="shape=note;whiteSpace=wrap;html=1;backgroundOutline=1;darkOpacity=0.05;size=0;align=left;fillColor=#FAFAFA;fontStyle=1" parent="1" vertex="1">
          <mxGeometry x="1786" y="430.5" width="270" height="33" as="geometry" />
        </mxCell>
        <mxCell id="VNlArZR2CeFgTRKCGVnY-189" value="" style="shape=image;verticalLabelPosition=bottom;labelBackgroundColor=default;verticalAlign=top;aspect=fixed;imageAspect=0;image=https://cdn-icons-png.flaticon.com/128/2386/2386473.png;fontStyle=0" parent="1" vertex="1">
          <mxGeometry x="1407.3200000000002" y="426.99999999999994" width="22" height="22" as="geometry" />
        </mxCell>
        <mxCell id="VNlArZR2CeFgTRKCGVnY-190" value="" style="shape=image;verticalLabelPosition=bottom;labelBackgroundColor=default;verticalAlign=top;aspect=fixed;imageAspect=0;image=https://cdn-icons-png.flaticon.com/128/2386/2386473.png;fontStyle=0" parent="1" vertex="1">
          <mxGeometry x="1864.16" y="434.99999999999994" width="22" height="22" as="geometry" />
        </mxCell>
        <mxCell id="VNlArZR2CeFgTRKCGVnY-193" style="edgeStyle=orthogonalEdgeStyle;rounded=1;orthogonalLoop=1;jettySize=auto;html=1;exitX=1;exitY=0.5;exitDx=0;exitDy=0;endArrow=classicThin;endFill=1;curved=0;" parent="1" source="VNlArZR2CeFgTRKCGVnY-194" target="VNlArZR2CeFgTRKCGVnY-204" edge="1">
          <mxGeometry relative="1" as="geometry">
            <Array as="points">
              <mxPoint x="2200" y="402" />
              <mxPoint x="2200" y="417" />
            </Array>
          </mxGeometry>
        </mxCell>
        <mxCell id="VNlArZR2CeFgTRKCGVnY-222" style="edgeStyle=orthogonalEdgeStyle;rounded=1;orthogonalLoop=1;jettySize=auto;html=1;exitX=0.5;exitY=0;exitDx=0;exitDy=0;entryX=0;entryY=0.5;entryDx=0;entryDy=0;endArrow=classicThin;endFill=1;curved=0;" parent="1" source="VNlArZR2CeFgTRKCGVnY-194" target="VNlArZR2CeFgTRKCGVnY-201" edge="1">
          <mxGeometry relative="1" as="geometry" />
        </mxCell>
        <mxCell id="VNlArZR2CeFgTRKCGVnY-194" value="&lt;p style=&quot;border-color: var(--border-color); margin: 0cm; font-family: Calibri, sans-serif;&quot; class=&quot;MsoNormal&quot;&gt;&lt;b&gt;&amp;nbsp;&lt;span style=&quot;background-color: initial;&quot;&gt;(&quot;Rise&quot;,&amp;nbsp;&lt;/span&gt;&lt;span style=&quot;background-color: rgb(153, 0, 0);&quot;&gt;0.25&lt;/span&gt;&lt;span style=&quot;background-color: initial;&quot;&gt;)&lt;/span&gt;&lt;/b&gt;&lt;br&gt;&lt;/p&gt;" style="rounded=0;whiteSpace=wrap;html=1;align=center;fontStyle=0" parent="1" vertex="1">
          <mxGeometry x="2111.06" y="391.63" width="78.94" height="20" as="geometry" />
        </mxCell>
        <mxCell id="VNlArZR2CeFgTRKCGVnY-196" style="edgeStyle=orthogonalEdgeStyle;rounded=1;orthogonalLoop=1;jettySize=auto;html=1;exitX=1;exitY=0.5;exitDx=0;exitDy=0;endArrow=classicThin;endFill=1;curved=0;" parent="1" source="VNlArZR2CeFgTRKCGVnY-197" target="VNlArZR2CeFgTRKCGVnY-204" edge="1">
          <mxGeometry relative="1" as="geometry">
            <Array as="points">
              <mxPoint x="2200" y="431" />
              <mxPoint x="2200" y="417" />
            </Array>
          </mxGeometry>
        </mxCell>
        <mxCell id="VNlArZR2CeFgTRKCGVnY-223" style="edgeStyle=orthogonalEdgeStyle;rounded=1;orthogonalLoop=1;jettySize=auto;html=1;exitX=0.5;exitY=1;exitDx=0;exitDy=0;entryX=0;entryY=0.5;entryDx=0;entryDy=0;endArrow=classicThin;endFill=1;curved=0;" parent="1" source="VNlArZR2CeFgTRKCGVnY-197" target="VNlArZR2CeFgTRKCGVnY-202" edge="1">
          <mxGeometry relative="1" as="geometry" />
        </mxCell>
        <mxCell id="VNlArZR2CeFgTRKCGVnY-197" value="&lt;p style=&quot;text-align: left; border-color: var(--border-color); margin: 0cm; font-family: Calibri, sans-serif;&quot; class=&quot;MsoNormal&quot;&gt;&lt;b&gt;(&quot;Rise&quot;,&amp;nbsp;&lt;span style=&quot;background-color: rgb(153, 255, 153);&quot;&gt;0.55&lt;/span&gt;)&lt;/b&gt;&lt;br&gt;&lt;/p&gt;" style="rounded=0;whiteSpace=wrap;html=1;fontStyle=0" parent="1" vertex="1">
          <mxGeometry x="2111.06" y="421.38" width="78.94" height="20" as="geometry" />
        </mxCell>
        <mxCell id="VNlArZR2CeFgTRKCGVnY-199" value="&lt;span&gt;Predict&lt;/span&gt;" style="rounded=0;whiteSpace=wrap;html=1;strokeColor=none;fillColor=none;fontStyle=1" parent="1" vertex="1">
          <mxGeometry x="2060.12" y="386" width="40" height="13.75" as="geometry" />
        </mxCell>
        <mxCell id="VNlArZR2CeFgTRKCGVnY-200" value="&lt;span&gt;Predict&lt;/span&gt;" style="rounded=0;whiteSpace=wrap;html=1;strokeColor=none;fillColor=none;fontStyle=1" parent="1" vertex="1">
          <mxGeometry x="2060.12" y="432" width="40" height="13.75" as="geometry" />
        </mxCell>
        <mxCell id="VNlArZR2CeFgTRKCGVnY-201" value="&lt;p style=&quot;text-align: left; border-color: var(--border-color); margin: 0cm; font-family: Calibri, sans-serif;&quot; class=&quot;MsoNormal&quot;&gt;&lt;b&gt;&lt;font style=&quot;border-color: var(--border-color); font-size: 12px;&quot;&gt;Trend:&amp;nbsp;Fall&amp;nbsp;&lt;/font&gt;&lt;font style=&quot;border-color: var(--border-color);&quot;&gt;Explanation:&amp;nbsp;&lt;/font&gt;&lt;span style=&quot;background-color: initial; font-family: Helvetica;&quot;&gt;...&lt;/span&gt;&lt;/b&gt;&lt;/p&gt;" style="rounded=0;whiteSpace=wrap;html=1;fontStyle=0" parent="1" vertex="1">
          <mxGeometry x="2189.08" y="361" width="170" height="20" as="geometry" />
        </mxCell>
        <mxCell id="VNlArZR2CeFgTRKCGVnY-202" value="&lt;p style=&quot;text-align: left; border-color: var(--border-color); margin: 0cm; font-family: Calibri, sans-serif;&quot; class=&quot;MsoNormal&quot;&gt;&lt;b&gt;&lt;font style=&quot;border-color: var(--border-color); font-size: 12px;&quot;&gt;Trend:&amp;nbsp;Rise&amp;nbsp;&lt;/font&gt;&lt;font style=&quot;border-color: var(--border-color);&quot;&gt;Explanation:&amp;nbsp;&lt;/font&gt;&lt;span style=&quot;background-color: initial; font-family: Helvetica;&quot;&gt;...&lt;/span&gt;&lt;/b&gt;&lt;/p&gt;" style="rounded=0;whiteSpace=wrap;html=1;fontStyle=0" parent="1" vertex="1">
          <mxGeometry x="2189.08" y="451.5" width="170" height="20" as="geometry" />
        </mxCell>
        <mxCell id="VNlArZR2CeFgTRKCGVnY-204" value="&lt;p style=&quot;text-align: left; border-color: var(--border-color); margin: 0cm; font-family: Calibri, sans-serif;&quot; class=&quot;MsoNormal&quot;&gt;&lt;b&gt;(&quot;Rise&quot;,&amp;nbsp;&lt;span style=&quot;background-color: rgb(255, 102, 102);&quot;&gt;0.40&lt;/span&gt;)&lt;/b&gt;&lt;br&gt;&lt;/p&gt;" style="rounded=0;whiteSpace=wrap;html=1;" parent="1" vertex="1">
          <mxGeometry x="2280" y="395.5" width="80" height="40" as="geometry" />
        </mxCell>
        <mxCell id="VNlArZR2CeFgTRKCGVnY-205" value="&lt;b&gt;Average&lt;/b&gt;" style="rounded=0;whiteSpace=wrap;html=1;strokeColor=none;fillColor=#ececec;" parent="1" vertex="1">
          <mxGeometry x="2207" y="410.25" width="50" height="13.75" as="geometry" />
        </mxCell>
        <mxCell id="VNlArZR2CeFgTRKCGVnY-208" value="&lt;u&gt;Multi-Agent&amp;nbsp;&lt;/u&gt;&lt;u style=&quot;background-color: initial;&quot;&gt;System&lt;/u&gt;" style="text;html=1;align=center;verticalAlign=middle;whiteSpace=wrap;rounded=0;fontStyle=1" parent="1" vertex="1">
          <mxGeometry x="1822.01" y="356.5" width="140" height="14.5" as="geometry" />
        </mxCell>
        <mxCell id="VNlArZR2CeFgTRKCGVnY-213" style="edgeStyle=orthogonalEdgeStyle;rounded=0;orthogonalLoop=1;jettySize=auto;html=1;exitX=1;exitY=0.5;exitDx=0;exitDy=0;entryX=0;entryY=0.5;entryDx=0;entryDy=0;entryPerimeter=0;endArrow=classicThin;endFill=1;" parent="1" target="VNlArZR2CeFgTRKCGVnY-185" edge="1">
          <mxGeometry relative="1" as="geometry">
            <mxPoint x="1769.8599999999997" y="388" as="sourcePoint" />
          </mxGeometry>
        </mxCell>
        <mxCell id="VNlArZR2CeFgTRKCGVnY-214" style="edgeStyle=orthogonalEdgeStyle;rounded=0;orthogonalLoop=1;jettySize=auto;html=1;exitX=1;exitY=0.5;exitDx=0;exitDy=0;entryX=0;entryY=0.5;entryDx=0;entryDy=0;entryPerimeter=0;endArrow=classicThin;endFill=1;" parent="1" target="VNlArZR2CeFgTRKCGVnY-188" edge="1">
          <mxGeometry relative="1" as="geometry">
            <mxPoint x="1768.3199999999997" y="447.1400000000001" as="sourcePoint" />
          </mxGeometry>
        </mxCell>
        <mxCell id="VNlArZR2CeFgTRKCGVnY-215" value="&lt;span&gt;Fine-tune&lt;/span&gt;" style="rounded=0;whiteSpace=wrap;html=1;strokeColor=none;fillColor=none;fontStyle=1" parent="1" vertex="1">
          <mxGeometry x="1685.14" y="381" width="36.57" height="13.75" as="geometry" />
        </mxCell>
        <mxCell id="VNlArZR2CeFgTRKCGVnY-216" value="&lt;span&gt;Fine-tune&lt;/span&gt;" style="rounded=0;whiteSpace=wrap;html=1;strokeColor=none;fillColor=none;fontStyle=1" parent="1" vertex="1">
          <mxGeometry x="1685.14" y="440" width="36.57" height="13.75" as="geometry" />
        </mxCell>
        <mxCell id="6WsjHR_gTMNWGDnBjEA1-1" value="&lt;p style=&quot;text-align: left; border-color: var(--border-color); margin: 0cm; font-family: Calibri, sans-serif;&quot; class=&quot;MsoNormal&quot;&gt;&lt;b&gt;&lt;font style=&quot;border-color: var(--border-color); font-size: 12px;&quot;&gt;Trend:&amp;nbsp;Rise&amp;nbsp;&lt;/font&gt;&lt;font style=&quot;border-color: var(--border-color);&quot;&gt;Explanation:&amp;nbsp;&lt;/font&gt;&lt;span style=&quot;background-color: initial; font-family: Helvetica;&quot;&gt;...&lt;/span&gt;&lt;/b&gt;&lt;/p&gt;" style="rounded=0;whiteSpace=wrap;html=1;fontStyle=0" parent="1" vertex="1">
          <mxGeometry x="2190" y="115" width="170" height="20" as="geometry" />
        </mxCell>
        <mxCell id="B4GVdXyUD7DBMOoh91eB-1" value="" style="shape=singleArrow;direction=north;whiteSpace=wrap;html=1;arrowWidth=0.5;arrowSize=0.25;fillColor=#f8cecc;strokeColor=#b85450;rotation=-180;strokeWidth=2;" parent="1" vertex="1">
          <mxGeometry x="1385" y="194" width="8" height="18" as="geometry" />
        </mxCell>
        <mxCell id="B4GVdXyUD7DBMOoh91eB-4" value="" style="shape=singleArrow;direction=north;whiteSpace=wrap;html=1;arrowWidth=0.5;arrowSize=0.25;fillColor=#f8cecc;strokeColor=#b85450;rotation=-180;strokeWidth=2;" parent="1" vertex="1">
          <mxGeometry x="1385" y="319" width="8" height="18" as="geometry" />
        </mxCell>
        <mxCell id="B4GVdXyUD7DBMOoh91eB-5" value="" style="shape=singleArrow;direction=north;whiteSpace=wrap;html=1;arrowWidth=0.5;arrowSize=0.25;fillColor=#f8cecc;strokeColor=#b85450;rotation=-180;strokeWidth=2;" parent="1" vertex="1">
          <mxGeometry x="1385" y="447" width="8" height="18" as="geometry" />
        </mxCell>
        <mxCell id="iooDljMD1_UqT9_UK1IL-1" value="" style="group" parent="1" vertex="1" connectable="0">
          <mxGeometry x="1840" y="136.88000000000002" width="170" height="60" as="geometry" />
        </mxCell>
        <mxCell id="UcRCHqnzbA3p5UHYwvYD-75" value="&lt;div&gt;&lt;span style=&quot;background-color: initial; font-size: 11px; font-family: &amp;quot;Times New Roman&amp;quot;;&quot;&gt;&lt;br&gt;&lt;/span&gt;&lt;/div&gt;&lt;div&gt;&lt;span style=&quot;background-color: initial; font-size: 11px; font-family: &amp;quot;Times New Roman&amp;quot;;&quot;&gt;&lt;br&gt;&lt;/span&gt;&lt;/div&gt;&lt;div&gt;&lt;span style=&quot;font-family: &amp;quot;Times New Roman&amp;quot;; background-color: initial;&quot;&gt;Q: Using data&amp;nbsp; &amp;nbsp; &amp;nbsp; &amp;nbsp; &amp;nbsp; &amp;nbsp; and&amp;nbsp; &amp;nbsp; &amp;nbsp; &amp;nbsp; &amp;nbsp; &amp;nbsp;, predict trend with explanation.&lt;/span&gt;&lt;span style=&quot;font-size: 11px; background-color: initial;&quot;&gt;&amp;nbsp; &amp;nbsp; &amp;nbsp; &amp;nbsp; &amp;nbsp; &amp;nbsp;&amp;nbsp;&lt;/span&gt;&lt;br&gt;&lt;/div&gt;&lt;div&gt;&lt;div style=&quot;font-size: 11px;&quot;&gt;&lt;br&gt;&lt;/div&gt;&lt;/div&gt;" style="shape=note;whiteSpace=wrap;html=1;backgroundOutline=1;darkOpacity=0.05;size=0;align=left;fillColor=#FAFAFA;fontStyle=1" parent="iooDljMD1_UqT9_UK1IL-1" vertex="1">
          <mxGeometry width="170" height="60" as="geometry" />
        </mxCell>
        <mxCell id="UcRCHqnzbA3p5UHYwvYD-76" value="" style="shape=image;verticalLabelPosition=bottom;labelBackgroundColor=default;verticalAlign=top;aspect=fixed;imageAspect=0;image=data:image/png,iVBORw0KGgoAAAANSUhEUgAAADoAAAA5CAYAAABnLziGAAABW2lDQ1BJQ0MgUHJvZmlsZQAAKJF1kDtLA1EQhU8eEjUpLLQQFIJgoawSYhrTxYgxsMgSDT5QcHPzEpL1ullRwR9hpX8giJVtUqazESwEBREstRSENBquc7PqJooDw3wczgwzA7h7dc5LXgBlwzJTibng2vpG0PcCP/owhGGM6qzCY5qmkgXftTuad3DJejslZ13e5C/OlhqzY8+T1cPNJ89ff1f0Z3MVRvWDMsS4aQEuhVg7sLjkY+JBk5YiPpFcsLkqOWNzve1ZScWJr4kHWFHPEj8SK5kOvdDB5dI++9pBbh/IGellOYdyBCoSCGIBaSKVaBHz//gjbX8cu+A4gokdFFCERT0xUjhKyBEnYYBhGgpxGCHKiPzz7/852h7dFU0C7rKjbWtA/VWe52jj9KvAFdDY4rqp/3zV1fRW8jNhm/01oOdUiLdVwDcBtO6FeK8J0ToHPA/U2/wEtRJi8ihLqmkAAABWZVhJZk1NACoAAAAIAAGHaQAEAAAAAQAAABoAAAAAAAOShgAHAAAAEgAAAESgAgAEAAAAAQAAADqgAwAEAAAAAQAAADkAAAAAQVNDSUkAAABTY3JlZW5zaG90v9r1yQAAAdRpVFh0WE1MOmNvbS5hZG9iZS54bXAAAAAAADx4OnhtcG1ldGEgeG1sbnM6eD0iYWRvYmU6bnM6bWV0YS8iIHg6eG1wdGs9IlhNUCBDb3JlIDYuMC4wIj4KICAgPHJkZjpSREYgeG1sbnM6cmRmPSJodHRwOi8vd3d3LnczLm9yZy8xOTk5LzAyLzIyLXJkZi1zeW50YXgtbnMjIj4KICAgICAgPHJkZjpEZXNjcmlwdGlvbiByZGY6YWJvdXQ9IiIKICAgICAgICAgICAgeG1sbnM6ZXhpZj0iaHR0cDovL25zLmFkb2JlLmNvbS9leGlmLzEuMC8iPgogICAgICAgICA8ZXhpZjpQaXhlbFlEaW1lbnNpb24+NTc8L2V4aWY6UGl4ZWxZRGltZW5zaW9uPgogICAgICAgICA8ZXhpZjpQaXhlbFhEaW1lbnNpb24+NTg8L2V4aWY6UGl4ZWxYRGltZW5zaW9uPgogICAgICAgICA8ZXhpZjpVc2VyQ29tbWVudD5TY3JlZW5zaG90PC9leGlmOlVzZXJDb21tZW50PgogICAgICA8L3JkZjpEZXNjcmlwdGlvbj4KICAgPC9yZGY6UkRGPgo8L3g6eG1wbWV0YT4KuLnPzQAAA+dJREFUaAXtWk1ME0EUfktrMFGoP6FYwXgxVBM9WGOip5azXtR4MJFEI6jRmwlXm148epIIWL2SiCaGaOJFU06SqL34F4rxYgWBeAGRQqDrvMVZZrcz+1N2ya67L9nMvPdm3rxv3pufbleSCUEAqCEAGBWIIdD/LdJhRL0aUTk/CNUTxwGK7225aCmi+TfPoVgu2TLstcZRvUMI6CEBxpIiGwNItXewYug7f0vDswzOPBSLrAjkf1GQUsfW5akUSN1X13mXajVAcRxR9ERykW8UmF7PyiW90iWeCxTHSjTvNhxyau6XoZ4qpVOnibEEZTWl/EKbORqlw4wQKKapCCxG1ipQh/2t25ylzahu6x7q6DughfESjM7N255CYeratiTqMDUp0liSFwoFpV0ulwNaf30oaakv28h1oLJyxGiPGdYBSOzVsBQMC4w2yCQ7IN3UBLDwe+2o0l0ajI4p14FSJ41KBIfAkChQrGcyGYBSCW7HmiDdTABSInU5/4BySqk5mzWaNcY1oDi77OB4dqJzUncPjJJfwLkBcqEgVLg/AIAPIQSGTzabVUqUyTeuqxcN5Osl14AqDpEbEI1Qrn8Q5AmykfRcU31lgaEQ+RrCmxN5VCJLASdNmURGzk6q2papOAZUBcRJQWY8wHWW7V+PIKvj1fXrbu1qSYCSzAD2KsnrzMhsAx0vfoAfs2Uoj72DzpFOxRQFydhVo4NpiJQh66pK0hAdlHiRYzsb1JUlUcfd2BJQBDfyaAiwZKlMGEw3fNLptFKiHnkeNYy95Yk3RWYJaDJ1BIAAxTJ59DBI7TthYvY7fOob2RQnnRjEElAcqPfeHXU8vOtOl1dV3g+VBj846YSPIVAnZtFLNsKIeikaTvgSmIgKjxejVyVGOidm3w0bQqB23/i54ZyTNiXe34Z6kDeH7yrvdK+cJG/0GNK/52VUnqtyIyoCIJJ7DhXHocBsRiFQTvR9LQpMRLm7rj50dBf282ZkCageuB/5wKRuCNSP6WnkcxhRo9nxo67mrotfBn4e/2aKJRKNwMED+03beaVBDVB0rLK0DM+eDgl9jEaicKHrslDvRQUXKDq6VFkU+hvdxvyFJ2zlLYUQ6EbdJCvAMhl9grO4vArz8wumtmLN26Fxi3hvdQ3oykoVPn75aupge1sCWnYZZ8iT4cdQqfwR2tqTaINzZ88I9ahwDSgan5osQ+HVS6xyKdG2Dy52XeLq9MKfxJaIEKgZiWNt1tNn+sAAFaZuSyv/sza7gfSKHe7PtOnpGUt4WlvjwnZ48ZiZMbfTuLURdsRiG7YTj8dBMti+uUCFo/pYEZg1GhigfwHwMCZAke0M+gAAAABJRU5ErkJggg==;imageBorder=default;strokeWidth=2;fontStyle=1" parent="iooDljMD1_UqT9_UK1IL-1" vertex="1">
          <mxGeometry x="80.82999999999993" y="12.169999999999987" width="20.35" height="20" as="geometry" />
        </mxCell>
        <mxCell id="UcRCHqnzbA3p5UHYwvYD-77" value="" style="shape=image;verticalLabelPosition=bottom;labelBackgroundColor=default;verticalAlign=top;aspect=fixed;imageAspect=0;image=https://cdn-icons-png.flaticon.com/128/2386/2386473.png;fontStyle=1" parent="iooDljMD1_UqT9_UK1IL-1" vertex="1">
          <mxGeometry x="135" y="9.169999999999902" width="24.34" height="24.34" as="geometry" />
        </mxCell>
        <mxCell id="iooDljMD1_UqT9_UK1IL-3" value="" style="endArrow=none;dashed=1;html=1;dashPattern=1 3;strokeWidth=2;rounded=0;fontStyle=0" parent="1" edge="1">
          <mxGeometry width="50" height="50" relative="1" as="geometry">
            <mxPoint x="1926.66" y="413.5" as="sourcePoint" />
            <mxPoint x="1946" y="414" as="targetPoint" />
          </mxGeometry>
        </mxCell>
        <mxCell id="VNlArZR2CeFgTRKCGVnY-165" value="&lt;u&gt;Ensemble&amp;nbsp;&lt;/u&gt;&lt;u style=&quot;background-color: initial;&quot;&gt;Single-Agent System&lt;/u&gt;" style="text;html=1;align=center;verticalAlign=middle;whiteSpace=wrap;rounded=0;fontStyle=1" parent="1" vertex="1">
          <mxGeometry x="1797.01" y="225.5" width="190" height="14.5" as="geometry" />
        </mxCell>
        <mxCell id="cz6FV_0nAGBFaBfGe65S-2" value="" style="shape=image;verticalLabelPosition=bottom;labelBackgroundColor=default;verticalAlign=top;aspect=fixed;imageAspect=0;image=data:image/png,iVBORw0KGgoAAAANSUhEUgAAAPoAAAD6CAYAAACI7Fo9AAAACXBIWXMAAA7EAAAOxAGVKw4bAAAIMUlEQVR4nO3dsYtlVx0H8DeSKvkbMkVAjOWmExdmFTKIqEWaxSVIwNkgLCSdAZEtthBit4ERyY4Ygqxsk0YJYQNmA2ObVGIkaDFpbZNKGEuF81ty3js39773vp9PeXj3vXNn+HLgy7n3HFyuLlfAfvva0hMAvnqCDgEEHQIIOgQQdAgg6BBA0CGAoEMAQYcAgg4BBB0CCDoEEHQIIOgQQNAhgKBDAEGHAIIOAQQdAgg6BBB0CCDoEEDQIYCgQwBBhwCCDgEEHQIIOgQQdAjwxNIT4MsdrA527sjby9XlwdJz4H+s6BBA0CGAoEMAQYcAB5ernet59sYulmxTU9rNw4oOAQQdAgg6BBB0CKCMm8lI8XZ4eLjx715cXGx8be/vjvxGRUE3PSs6BBB0CCDoEEDQIYAy7iswdfFWjZ2fn2/8fVV5NvK53mtHSjsF3RgrOgQQdAgg6BBA0CGAd8YNmrp46y3AevUWYCOfm7rwq1R/ZwVdPys6BBB0CCDoEEDQIYCdcYN6y7ipi7epHw0dMTLnkYJOGdfPig4BBB0CCDoEEHQIoIxbwxwHLgyVU//4UzP2RXHtk8Vv9H7u4Bs/7JrLyH2MUNDVrOgQQNAhgKBDAEGHAMq4NUxdxm178baLBZ0yrmZFhwCCDgEEHQIIOgRQxq1hjvfDVbapeNv2gk4ZV7OiQwBBhwCCDgEEHQIo49Yw9fvhKnevX1lvUv/n5OSkGZu6eDs7O9twdqvVqw8+7vqc98hNz4oOAQQdAgg6BBB0COA01QVVxVtVqPWqirLe7+st3kbmt1q139db0DHGig4BBB0CCDoEEHQIYGfcGqbeGff5+6fN2FPP39pgZo//vqlNPb/q++yMm54VHQIIOgQQdAgg6BBAGbeGN64/1/yxpt7Z9ejRo2bs2rVrzdjlZft/Ozhoe6iRgq4qynp/t/c+RlQ7C1958JEyrmBFhwCCDgEEHQIIOgTwmOpMend7HR0dNWOn//xRM1YVYHOofrea39Ez7X1U5jhhFSs6RBB0CCDoEEDQIYAybtAcj15WqgLsP7/4rBkbOcCh2nn2xK+e7p1il5FHekcOk0hjRYcAgg4BBB0CCDoE8JjqoKnfI/f3373WjD1740Yz9sn9++3nrl5txkZOTq0+98n5+cbz++ZPX2/GvB9uHlZ0CCDoEEDQIYCgQwBl3KDeMq5S7fbqLsAGirdeQwVd5/xGDoRQxvWzokMAQYcAgg4BBB0CeEx1QdUOsKo6q4qtSm/x9sbt283YK3fubPx91e62qnjzLrjlWNEhgKBDAEGHAIIOAeyMW8PILrhe1XvaTk5Ouq4d2QXXqyrZKtX73KY+ebZit1zNig4BBB0CCDoEEHQIoIxbQ1XGzXEaaFXQVY6Pj5uxan69qvt4+PBh17VTF2+9f2dlXM2KDgEEHQIIOgQQdAjgMdXHmGMX3NXi8dPz4v1rvcXW3eEZfbmRkq33fkdU/zcFnRUdIgg6BBB0CCDoEEAZtxo7EXVE7w66l77+Ytfn/v3Ll0em0+Wlj97s+txbn/6hGRvZMVi+X69zt5yCzooOEQQdAgg6BBB0CBBXxk1dvE1dMFWqx0+rXWa3X2gPZqg8/U5b2n32Ql/Jdqc46KHa3TZ1GddrjseGd5EVHQIIOgQQdAgg6BBgr98Zt03FW6+LP/6r63ersbKgK05O/fbPj5qxv/76w2ast3ir/n7l2I+facamNlLG7fNuOSs6BBB0CCDoEEDQIUDczrhtKt56C6v7t97uurb3/WvV6axVGddbvJXF4GvXNr52anbLWdEhgqBDAEGHAIIOAfamjBs5cGGpYqb3PWg3Tn/SjJ2//qgZq3bGVaef9t5v9X3VtdX8lirAev+maazoEEDQIYCgQwBBhwB7U8ZVliqEqgMXqt1o2/Qo59TKR2s7H8E9Oztrxqp30E1tnw96sKJDAEGHAIIOAQQdAux1GTdi6iKv91HOSrULbqndXuXjsdUuveox1c5HcJmeFR0CCDoEEHQIIOgQQBk3k+qRz9VpO1TtqttF1X1Uu9t6H61ljBUdAgg6BBB0CCDoEGCvy7il3gV35bm/NWPVqaa9hdXxxXEzNse99R4IUanuo7rf6u9S/f3e+nTjqbCyokMEQYcAgg4BBB0C7HUZt01Of/OtZuzJ6lHTH7RD5bvlOh9THdllVu7mK1TFYFW8/f7P15uxL8p3xrVlHGOs6BBA0CGAoEMAQYcAyrjHmHrnWfV9z3YWatWBBnOodq1NbakTVtNY0SGAoEMAQYcAgg4BDi5XzQGSO6k6CbNSnY7Ze+2Iu9evNGPVCatPPX+r6/vu3bs3PKep3Lx5s+tzn7/fviSvKhpfffDx8Jw2sS8np1as6BBA0CGAoEMAQYcAe1PGVaqSbakyrlIVdJWlyqkRS93byP9XGQfsNEGHAIIOAQQdAijj1riW7aeMq1nRIYCgQwBBhwCCDgH2uoyb2tQF3Tbt0ttFI8XqPhdvFSs6BBB0CCDoEEDQIYAybtBIeWaXXr+08mxqVnQIIOgQQNAhgKBDAKepDpq6UEsr3pRs87CiQwBBhwCCDgEEHQIo42ZSlU7fLYq378wwlw+KsTl+l+VY0SGAoEMAQYcAgg4BlHFb5s7PXt742ouLi2bs7N33mrHeYvDk+99rrj08PNx4frd/++bG1zLGig4BBB0CCDoEEHQI4J1xC6oKsDn8pbOMW2ouTM+KDgEEHQIIOgQQdAigjIMAVnQIIOgQQNAhgKBDAEGHAIIOAQQdAgg6BBB0CCDoEEDQIYCgQwBBhwCCDgH+C5NluP6jnBV0AAAAAElFTkSuQmCC;clipPath=inset(11.6% 20.4% 6% 19.6%);" vertex="1" parent="1">
          <mxGeometry x="1724.71" y="134" width="45.15" height="62" as="geometry" />
        </mxCell>
        <mxCell id="cz6FV_0nAGBFaBfGe65S-5" value="" style="shape=image;verticalLabelPosition=bottom;labelBackgroundColor=default;verticalAlign=top;aspect=fixed;imageAspect=0;image=data:image/png,iVBORw0KGgoAAAANSUhEUgAAAPoAAAD6CAYAAACI7Fo9AAAACXBIWXMAAA7EAAAOxAGVKw4bAAAIMUlEQVR4nO3dsYtlVx0H8DeSKvkbMkVAjOWmExdmFTKIqEWaxSVIwNkgLCSdAZEtthBit4ERyY4Ygqxsk0YJYQNmA2ObVGIkaDFpbZNKGEuF81ty3js39773vp9PeXj3vXNn+HLgy7n3HFyuLlfAfvva0hMAvnqCDgEEHQIIOgQQdAgg6BBA0CGAoEMAQYcAgg4BBB0CCDoEEHQIIOgQQNAhgKBDAEGHAIIOAQQdAgg6BBB0CCDoEEDQIYCgQwBBhwCCDgEEHQIIOgQQdAjwxNIT4MsdrA527sjby9XlwdJz4H+s6BBA0CGAoEMAQYcAB5ernet59sYulmxTU9rNw4oOAQQdAgg6BBB0CKCMm8lI8XZ4eLjx715cXGx8be/vjvxGRUE3PSs6BBB0CCDoEEDQIYAy7iswdfFWjZ2fn2/8fVV5NvK53mtHSjsF3RgrOgQQdAgg6BBA0CGAd8YNmrp46y3AevUWYCOfm7rwq1R/ZwVdPys6BBB0CCDoEEDQIYCdcYN6y7ipi7epHw0dMTLnkYJOGdfPig4BBB0CCDoEEHQIoIxbwxwHLgyVU//4UzP2RXHtk8Vv9H7u4Bs/7JrLyH2MUNDVrOgQQNAhgKBDAEGHAMq4NUxdxm178baLBZ0yrmZFhwCCDgEEHQIIOgRQxq1hjvfDVbapeNv2gk4ZV7OiQwBBhwCCDgEEHQIo49Yw9fvhKnevX1lvUv/n5OSkGZu6eDs7O9twdqvVqw8+7vqc98hNz4oOAQQdAgg6BBB0COA01QVVxVtVqPWqirLe7+st3kbmt1q139db0DHGig4BBB0CCDoEEHQIYGfcGqbeGff5+6fN2FPP39pgZo//vqlNPb/q++yMm54VHQIIOgQQdAgg6BBAGbeGN64/1/yxpt7Z9ejRo2bs2rVrzdjlZft/Ozhoe6iRgq4qynp/t/c+RlQ7C1958JEyrmBFhwCCDgEEHQIIOgTwmOpMend7HR0dNWOn//xRM1YVYHOofrea39Ez7X1U5jhhFSs6RBB0CCDoEEDQIYAybtAcj15WqgLsP7/4rBkbOcCh2nn2xK+e7p1il5FHekcOk0hjRYcAgg4BBB0CCDoE8JjqoKnfI/f3373WjD1740Yz9sn9++3nrl5txkZOTq0+98n5+cbz++ZPX2/GvB9uHlZ0CCDoEEDQIYCgQwBl3KDeMq5S7fbqLsAGirdeQwVd5/xGDoRQxvWzokMAQYcAgg4BBB0CeEx1QdUOsKo6q4qtSm/x9sbt283YK3fubPx91e62qnjzLrjlWNEhgKBDAEGHAIIOAeyMW8PILrhe1XvaTk5Ouq4d2QXXqyrZKtX73KY+ebZit1zNig4BBB0CCDoEEHQIoIxbQ1XGzXEaaFXQVY6Pj5uxan69qvt4+PBh17VTF2+9f2dlXM2KDgEEHQIIOgQQdAjgMdXHmGMX3NXi8dPz4v1rvcXW3eEZfbmRkq33fkdU/zcFnRUdIgg6BBB0CCDoEEAZtxo7EXVE7w66l77+Ytfn/v3Ll0em0+Wlj97s+txbn/6hGRvZMVi+X69zt5yCzooOEQQdAgg6BBB0CBBXxk1dvE1dMFWqx0+rXWa3X2gPZqg8/U5b2n32Ql/Jdqc46KHa3TZ1GddrjseGd5EVHQIIOgQQdAgg6BBgr98Zt03FW6+LP/6r63ersbKgK05O/fbPj5qxv/76w2ast3ir/n7l2I+facamNlLG7fNuOSs6BBB0CCDoEEDQIUDczrhtKt56C6v7t97uurb3/WvV6axVGddbvJXF4GvXNr52anbLWdEhgqBDAEGHAIIOAfamjBs5cGGpYqb3PWg3Tn/SjJ2//qgZq3bGVaef9t5v9X3VtdX8lirAev+maazoEEDQIYCgQwBBhwB7U8ZVliqEqgMXqt1o2/Qo59TKR2s7H8E9Oztrxqp30E1tnw96sKJDAEGHAIIOAQQdAux1GTdi6iKv91HOSrULbqndXuXjsdUuveox1c5HcJmeFR0CCDoEEHQIIOgQQBk3k+qRz9VpO1TtqttF1X1Uu9t6H61ljBUdAgg6BBB0CCDoEGCvy7il3gV35bm/NWPVqaa9hdXxxXEzNse99R4IUanuo7rf6u9S/f3e+nTjqbCyokMEQYcAgg4BBB0C7HUZt01Of/OtZuzJ6lHTH7RD5bvlOh9THdllVu7mK1TFYFW8/f7P15uxL8p3xrVlHGOs6BBA0CGAoEMAQYcAyrjHmHrnWfV9z3YWatWBBnOodq1NbakTVtNY0SGAoEMAQYcAgg4BDi5XzQGSO6k6CbNSnY7Ze+2Iu9evNGPVCatPPX+r6/vu3bs3PKep3Lx5s+tzn7/fviSvKhpfffDx8Jw2sS8np1as6BBA0CGAoEMAQYcAe1PGVaqSbakyrlIVdJWlyqkRS93byP9XGQfsNEGHAIIOAQQdAijj1riW7aeMq1nRIYCgQwBBhwCCDgH2uoyb2tQF3Tbt0ttFI8XqPhdvFSs6BBB0CCDoEEDQIYAybtBIeWaXXr+08mxqVnQIIOgQQNAhgKBDAKepDpq6UEsr3pRs87CiQwBBhwCCDgEEHQIo42ZSlU7fLYq378wwlw+KsTl+l+VY0SGAoEMAQYcAgg4BlHFb5s7PXt742ouLi2bs7N33mrHeYvDk+99rrj08PNx4frd/++bG1zLGig4BBB0CCDoEEHQI4J1xC6oKsDn8pbOMW2ouTM+KDgEEHQIIOgQQdAigjIMAVnQIIOgQQNAhgKBDAEGHAIIOAQQdAgg6BBB0CCDoEEDQIYCgQwBBhwCCDgH+C5NluP6jnBV0AAAAAElFTkSuQmCC;clipPath=inset(11.6% 20.4% 6% 19.6%);" vertex="1" parent="1">
          <mxGeometry x="1726.71" y="254.5" width="45.15" height="62" as="geometry" />
        </mxCell>
        <mxCell id="cz6FV_0nAGBFaBfGe65S-6" value="" style="shape=image;verticalLabelPosition=bottom;labelBackgroundColor=default;verticalAlign=top;aspect=fixed;imageAspect=0;image=data:image/png,iVBORw0KGgoAAAANSUhEUgAAAPoAAAD6CAYAAACI7Fo9AAAACXBIWXMAAA7EAAAOxAGVKw4bAAAIMUlEQVR4nO3dsYtlVx0H8DeSKvkbMkVAjOWmExdmFTKIqEWaxSVIwNkgLCSdAZEtthBit4ERyY4Ygqxsk0YJYQNmA2ObVGIkaDFpbZNKGEuF81ty3js39773vp9PeXj3vXNn+HLgy7n3HFyuLlfAfvva0hMAvnqCDgEEHQIIOgQQdAgg6BBA0CGAoEMAQYcAgg4BBB0CCDoEEHQIIOgQQNAhgKBDAEGHAIIOAQQdAgg6BBB0CCDoEEDQIYCgQwBBhwCCDgEEHQIIOgQQdAjwxNIT4MsdrA527sjby9XlwdJz4H+s6BBA0CGAoEMAQYcAB5ernet59sYulmxTU9rNw4oOAQQdAgg6BBB0CKCMm8lI8XZ4eLjx715cXGx8be/vjvxGRUE3PSs6BBB0CCDoEEDQIYAy7iswdfFWjZ2fn2/8fVV5NvK53mtHSjsF3RgrOgQQdAgg6BBA0CGAd8YNmrp46y3AevUWYCOfm7rwq1R/ZwVdPys6BBB0CCDoEEDQIYCdcYN6y7ipi7epHw0dMTLnkYJOGdfPig4BBB0CCDoEEHQIoIxbwxwHLgyVU//4UzP2RXHtk8Vv9H7u4Bs/7JrLyH2MUNDVrOgQQNAhgKBDAEGHAMq4NUxdxm178baLBZ0yrmZFhwCCDgEEHQIIOgRQxq1hjvfDVbapeNv2gk4ZV7OiQwBBhwCCDgEEHQIo49Yw9fvhKnevX1lvUv/n5OSkGZu6eDs7O9twdqvVqw8+7vqc98hNz4oOAQQdAgg6BBB0COA01QVVxVtVqPWqirLe7+st3kbmt1q139db0DHGig4BBB0CCDoEEHQIYGfcGqbeGff5+6fN2FPP39pgZo//vqlNPb/q++yMm54VHQIIOgQQdAgg6BBAGbeGN64/1/yxpt7Z9ejRo2bs2rVrzdjlZft/Ozhoe6iRgq4qynp/t/c+RlQ7C1958JEyrmBFhwCCDgEEHQIIOgTwmOpMend7HR0dNWOn//xRM1YVYHOofrea39Ez7X1U5jhhFSs6RBB0CCDoEEDQIYAybtAcj15WqgLsP7/4rBkbOcCh2nn2xK+e7p1il5FHekcOk0hjRYcAgg4BBB0CCDoE8JjqoKnfI/f3373WjD1740Yz9sn9++3nrl5txkZOTq0+98n5+cbz++ZPX2/GvB9uHlZ0CCDoEEDQIYCgQwBl3KDeMq5S7fbqLsAGirdeQwVd5/xGDoRQxvWzokMAQYcAgg4BBB0CeEx1QdUOsKo6q4qtSm/x9sbt283YK3fubPx91e62qnjzLrjlWNEhgKBDAEGHAIIOAeyMW8PILrhe1XvaTk5Ouq4d2QXXqyrZKtX73KY+ebZit1zNig4BBB0CCDoEEHQIoIxbQ1XGzXEaaFXQVY6Pj5uxan69qvt4+PBh17VTF2+9f2dlXM2KDgEEHQIIOgQQdAjgMdXHmGMX3NXi8dPz4v1rvcXW3eEZfbmRkq33fkdU/zcFnRUdIgg6BBB0CCDoEEAZtxo7EXVE7w66l77+Ytfn/v3Ll0em0+Wlj97s+txbn/6hGRvZMVi+X69zt5yCzooOEQQdAgg6BBB0CBBXxk1dvE1dMFWqx0+rXWa3X2gPZqg8/U5b2n32Ql/Jdqc46KHa3TZ1GddrjseGd5EVHQIIOgQQdAgg6BBgr98Zt03FW6+LP/6r63ersbKgK05O/fbPj5qxv/76w2ast3ir/n7l2I+facamNlLG7fNuOSs6BBB0CCDoEEDQIUDczrhtKt56C6v7t97uurb3/WvV6axVGddbvJXF4GvXNr52anbLWdEhgqBDAEGHAIIOAfamjBs5cGGpYqb3PWg3Tn/SjJ2//qgZq3bGVaef9t5v9X3VtdX8lirAev+maazoEEDQIYCgQwBBhwB7U8ZVliqEqgMXqt1o2/Qo59TKR2s7H8E9Oztrxqp30E1tnw96sKJDAEGHAIIOAQQdAux1GTdi6iKv91HOSrULbqndXuXjsdUuveox1c5HcJmeFR0CCDoEEHQIIOgQQBk3k+qRz9VpO1TtqttF1X1Uu9t6H61ljBUdAgg6BBB0CCDoEGCvy7il3gV35bm/NWPVqaa9hdXxxXEzNse99R4IUanuo7rf6u9S/f3e+nTjqbCyokMEQYcAgg4BBB0C7HUZt01Of/OtZuzJ6lHTH7RD5bvlOh9THdllVu7mK1TFYFW8/f7P15uxL8p3xrVlHGOs6BBA0CGAoEMAQYcAyrjHmHrnWfV9z3YWatWBBnOodq1NbakTVtNY0SGAoEMAQYcAgg4BDi5XzQGSO6k6CbNSnY7Ze+2Iu9evNGPVCatPPX+r6/vu3bs3PKep3Lx5s+tzn7/fviSvKhpfffDx8Jw2sS8np1as6BBA0CGAoEMAQYcAe1PGVaqSbakyrlIVdJWlyqkRS93byP9XGQfsNEGHAIIOAQQdAijj1riW7aeMq1nRIYCgQwBBhwCCDgH2uoyb2tQF3Tbt0ttFI8XqPhdvFSs6BBB0CCDoEEDQIYAybtBIeWaXXr+08mxqVnQIIOgQQNAhgKBDAKepDpq6UEsr3pRs87CiQwBBhwCCDgEEHQIo42ZSlU7fLYq378wwlw+KsTl+l+VY0SGAoEMAQYcAgg4BlHFb5s7PXt742ouLi2bs7N33mrHeYvDk+99rrj08PNx4frd/++bG1zLGig4BBB0CCDoEEHQI4J1xC6oKsDn8pbOMW2ouTM+KDgEEHQIIOgQQdAigjIMAVnQIIOgQQNAhgKBDAEGHAIIOAQQdAgg6BBB0CCDoEEDQIYCgQwBBhwCCDgH+C5NluP6jnBV0AAAAAElFTkSuQmCC;clipPath=inset(11.6% 20.4% 6% 19.6%);" vertex="1" parent="1">
          <mxGeometry x="1733.45" y="363" width="36.41" height="50" as="geometry" />
        </mxCell>
        <mxCell id="cz6FV_0nAGBFaBfGe65S-7" value="" style="shape=image;verticalLabelPosition=bottom;labelBackgroundColor=default;verticalAlign=top;aspect=fixed;imageAspect=0;image=data:image/png,iVBORw0KGgoAAAANSUhEUgAAAPoAAAD6CAYAAACI7Fo9AAAACXBIWXMAAA7EAAAOxAGVKw4bAAAH8UlEQVR4nO3dz4tkVxkG4KoQRslA/oFgb0YYstFkEMZFw4CYwU1AXThbIQVqD4zIgBoXHdKLRAMTycB0FEpwOy5EyEY74qoFV/nhJkZcFbhzFUjQIJRLxfOJZ+rerls97/MsD111T93m5cDLuffM17P1DHi4PTL1BICzJ+gQQNAhgKBDAEGHAIIOAQQdAgg6BBB0CCDoEEDQIYCgQwBBhwCCDgEEHQIIOgQQdAgg6BBA0CGAoEMAQYcAgg4BBB0CCDoEEHQIIOgQQNAhgKBDAEGHAI9OPQH+v+P9+bk78vbgdD2feg78mxUdAgg6BBB0CCDoEEAZN6Hekm2xWDRjF/b2Nr7ux6tVM7Yqxj69v7/x9x3P+n6b0m47rOgQQNAhgKBDAEGHAMq4Lekt3q5fv775RToLugvVR4uxqmS7UBR01fdVBWJV+FWlnYJufFZ0CCDoEEDQIYCgQ4D5enbunoDceVXxdnB01P5hVZ4VhVVVilXK3XK9O+g6r1uVcWPP+fjwsBlT0A1jRYcAgg4BBB0CCDoEsDNuoN4db385PW3GysdAi3Kq2nlWlV1DrlEpH13t+uT4yoJTQdfNig4BBB0CCDoEEHQIoIw7A9UuuEHl2dg6d7KdnJw0Y73zWy6XzVjvfake1a3mQj8rOgQQdAgg6BBA0CGAx1QfQO8uuN7SqSqsGHb/7JarWdEhgKBDAEGHAIIOAeyMG6g6qKB651nl6y/c2/i6jxWPmn5UFFZT/V2vn794sxlTXI7Pig4BBB0CCDoEEHQIoIwbqHqvWlXQDSmTdr14G7ugq+6VR1eHsaJDAEGHAIIOAQQdAijjzkBVJvXughtS2lUl4NiF2tjzq+5LtVuOYazoEEDQIYCgQwBBhwDeGfcAet8Zd7M9l2EyH765+aOwF5/ZnVLsXue5Ft4ZV7OiQwBBhwCCDgEEHQLYGTfQP594uhh9uxlZr6cpPefzzbupXZpzdZ8f/Wt7n6lZ0SGAoEMAQYcAgg4BlHEPoCqEqneZze63JdHHf/59M/b8T3/ZjB0cHDRjx8fHzdidO3easdu3b7dzKVS75apdcNX39V6393e8/I2v/s95/qf6nXFdH2VmRYcIgg4BBB0CCDoEUMYNtFe8a63Xl596ohm7dOlSM3blkeeasd7ibWzVdav5Vb+j+r29htxnrOgQQdAhgKBDAEGHAMq4M/DajXYH3Scuty89+8f7m79crirA9j7z62bs1Y2vUJdnqz9+aePvu3r1ajNW3Zfq/jGMFR0CCDoEEHQIIOgQwAEOA929caXrBlaPWT753I9Gn89/W7//xsafnV9+dsSZ1N772feasZPO509v3X/LYQ2drOgQQNAhgKBDAEGHAHbGDVQVQr0FXfXutseqxzGrsdWq5xKzu4eHXX9X6S7yOuf3UTG26vwdirdhrOgQQNAhgKBDAEGHAHbGbUlV0FW75ap3o5UFXXWNonj77Ld+3PXZyruvf6cZu3V01IxVJVulKt6qXXCKt/FZ0SGAoEMAQYcAgg4B7IzbknIH3axvB91isdj4uteuXdv4s+++3o71Fm/L5bLr7xRv22FFhwCCDgEEHQIIOgSwM+4cGPJeut73r439fUq23WJFhwCCDgEEHQIIOgRQxj1Eeku7IZRs55MVHQIIOgQQdAgg6BBAGbdj5rP5xv+Qp377izGnUnrni1/b+LPr2VqRNxErOgQQdAgg6BBA0CGAMm5CQ4q36qCH3pNJq9Kut2Qbct2Kgm47rOgQQNAhgKBDAEGHAA5w2DG9ZVc11vvZd05eHXUuY3+W8VnRIYCgQwBBhwCCDgHsjNuS3l1w2yixjv7eHsJw+Mn2sIYhhvwOu+XGZ0WHAIIOAQQdAgg6BLAzbscMKd56C7DT09NRv69iF9xusaJDAEGHAIIOAQQdAijjzsAu7YKr7O/vN2PtXrnx9f7e6v7ZLTeMFR0CCDoEEHQIIOgQQBk3obF3wW2D3XLnkxUdAgg6BBB0CCDoEEAZtyW95dnDXFi5B9OxokMAQYcAgg4BBB0CKOPOwEs3v9+M/eDeD0e9xjYKq7Gv0ft91f2b3Rt1KnGs6BBA0CGAoEMAQYcAyrgzcPFvv2nGyoLud0VB917fNYbsMustxUbfyfZkO/TSF9r7Ut2/2ezlvmtQsqJDAEGHAIIOAQQdAijjtuQrV9ozHZ6/9UYzNr/8bNf3ncedcetftb/3T8XJrifbOE0ijBUdAgg6BBB0CCDoEGC+nnUd/MlAd2+0bdxisWj+7uIzN/u+8LufHzyn0bzyh64/+/DN9lnT5XLZjN26/5aTU0dmRYcAgg4BBB0CCDoEUMZNqCroKt++//ZZT2V0r914uuvvFG/bYUWHAIIOAQQdAgg6BFDGnQPz2XzUf9J6tm4KsG1cg+lY0SGAoEMAQYcAgg4BBB0CCDoEEHQIIOgQQNAhgKBDAEGHAIIOAQQdAgg6BHCa6o4Z+3HRqVS/w6Or07GiQwBBhwCCDgEEHQIo4ybUW7zt7e01Y6vVqhn7yeMvNmPLD9rTSiufm32qGVs83p72+s0PXth4fgq66VjRIYCgQwBBhwCCDgGUcTumKrbOo96Cju2wokMAQYcAgg4BBB0COE11QlM9krqN01SHzIXxWdEhgKBDAEGHAIIOAZRxEMCKDgEEHQIIOgQQdAgg6BBA0CGAoEMAQYcAgg4BBB0CCDoEEHQIIOgQQNAhwL8A7VYi/CpYn4cAAAAASUVORK5CYII=;clipPath=inset(11.6% 28% 6% 29.6%);" vertex="1" parent="1">
          <mxGeometry x="1738.7900000000002" y="421" width="25.73" height="50" as="geometry" />
        </mxCell>
      </root>
    </mxGraphModel>
  </diagram>
</mxfile>
